<svg width="253" height="538" viewBox="0 0 253 538" fill="none" xmlns="http://www.w3.org/2000/svg">
<g opacity="0.38">
<path d="M52.064 11.372C54.9573 11.372 57.1787 11.8853 58.728 12.912C60.2773 13.92 61.052 15.5813 61.052 17.896C61.052 20.2293 60.268 21.9187 58.7 22.964C57.132 23.9907 54.892 24.504 51.98 24.504H50.608V31H46.24V11.876C47.192 11.6893 48.2 11.5587 49.264 11.484C50.328 11.4093 51.2613 11.372 52.064 11.372ZM52.344 15.096C52.0267 15.096 51.7093 15.1053 51.392 15.124C51.0933 15.1427 50.832 15.1613 50.608 15.18V20.78H51.98C53.492 20.78 54.6307 20.5747 55.396 20.164C56.1613 19.7533 56.544 18.988 56.544 17.868C56.544 17.3267 56.4413 16.8787 56.236 16.524C56.0493 16.1693 55.7693 15.8893 55.396 15.684C55.0413 15.46 54.6027 15.3107 54.08 15.236C53.5573 15.1427 52.9787 15.096 52.344 15.096ZM72.8555 19.968C72.4822 19.8747 72.0435 19.7813 71.5395 19.688C71.0355 19.576 70.4942 19.52 69.9155 19.52C69.6542 19.52 69.3369 19.548 68.9635 19.604C68.6089 19.6413 68.3382 19.688 68.1515 19.744V31H63.9795V17.056C64.7262 16.7947 65.6035 16.552 66.6115 16.328C67.6382 16.0853 68.7769 15.964 70.0275 15.964C70.2515 15.964 70.5222 15.9827 70.8395 16.02C71.1569 16.0387 71.4742 16.076 71.7915 16.132C72.1089 16.1693 72.4262 16.2253 72.7435 16.3C73.0609 16.356 73.3315 16.4307 73.5555 16.524L72.8555 19.968ZM74.8186 23.748C74.8186 22.4413 75.0146 21.3027 75.4066 20.332C75.8173 19.3427 76.3493 18.5213 77.0026 17.868C77.6559 17.2147 78.4026 16.72 79.2426 16.384C80.1013 16.048 80.9786 15.88 81.8746 15.88C83.9653 15.88 85.6173 16.524 86.8306 17.812C88.0439 19.0813 88.6506 20.9573 88.6506 23.44C88.6506 23.6827 88.6413 23.9533 88.6226 24.252C88.6039 24.532 88.5853 24.784 88.5666 25.008H79.1026C79.1959 25.8667 79.5973 26.548 80.3066 27.052C81.0159 27.556 81.9679 27.808 83.1626 27.808C83.9279 27.808 84.6746 27.7427 85.4026 27.612C86.1493 27.4627 86.7559 27.2853 87.2226 27.08L87.7826 30.468C87.5586 30.58 87.2599 30.692 86.8866 30.804C86.5133 30.916 86.0933 31.0093 85.6266 31.084C85.1786 31.1773 84.6933 31.252 84.1706 31.308C83.6479 31.364 83.1253 31.392 82.6026 31.392C81.2773 31.392 80.1199 31.196 79.1306 30.804C78.1599 30.412 77.3479 29.88 76.6946 29.208C76.0599 28.5173 75.5839 27.7053 75.2666 26.772C74.9679 25.8387 74.8186 24.8307 74.8186 23.748ZM84.6186 22.152C84.5999 21.7973 84.5346 21.452 84.4226 21.116C84.3293 20.78 84.1706 20.4813 83.9466 20.22C83.7413 19.9587 83.4706 19.744 83.1346 19.576C82.8173 19.408 82.4159 19.324 81.9306 19.324C81.4639 19.324 81.0626 19.408 80.7266 19.576C80.3906 19.7253 80.1106 19.9307 79.8866 20.192C79.6626 20.4533 79.4853 20.7613 79.3546 21.116C79.2426 21.452 79.1586 21.7973 79.1026 22.152H84.6186ZM96.0982 28.004C96.8635 28.004 97.4048 27.9293 97.7222 27.78C98.0395 27.6307 98.1982 27.3413 98.1982 26.912C98.1982 26.576 97.9928 26.2867 97.5822 26.044C97.1715 25.7827 96.5462 25.4933 95.7062 25.176C95.0528 24.9333 94.4555 24.6813 93.9142 24.42C93.3915 24.1587 92.9435 23.8507 92.5702 23.496C92.1968 23.1227 91.9075 22.684 91.7022 22.18C91.4968 21.676 91.3942 21.0693 91.3942 20.36C91.3942 18.9787 91.9075 17.8867 92.9342 17.084C93.9608 16.2813 95.3702 15.88 97.1622 15.88C98.0582 15.88 98.9168 15.964 99.7382 16.132C100.559 16.2813 101.213 16.4493 101.698 16.636L100.97 19.884C100.485 19.716 99.9528 19.5667 99.3742 19.436C98.8142 19.3053 98.1795 19.24 97.4702 19.24C96.1635 19.24 95.5102 19.604 95.5102 20.332C95.5102 20.5 95.5382 20.6493 95.5942 20.78C95.6502 20.9107 95.7622 21.0413 95.9302 21.172C96.0982 21.284 96.3222 21.4147 96.6022 21.564C96.9008 21.6947 97.2742 21.844 97.7222 22.012C98.6368 22.348 99.3928 22.684 99.9902 23.02C100.587 23.3373 101.054 23.692 101.39 24.084C101.745 24.4573 101.987 24.8773 102.118 25.344C102.267 25.8107 102.342 26.352 102.342 26.968C102.342 28.424 101.791 29.5253 100.69 30.272C99.6075 31.0187 98.0675 31.392 96.0702 31.392C94.7635 31.392 93.6715 31.28 92.7942 31.056C91.9355 30.832 91.3382 30.6453 91.0022 30.496L91.7022 27.108C92.4115 27.388 93.1395 27.612 93.8862 27.78C94.6328 27.9293 95.3702 28.004 96.0982 28.004ZM104.76 23.748C104.76 22.4413 104.956 21.3027 105.348 20.332C105.759 19.3427 106.291 18.5213 106.944 17.868C107.597 17.2147 108.344 16.72 109.184 16.384C110.043 16.048 110.92 15.88 111.816 15.88C113.907 15.88 115.559 16.524 116.772 17.812C117.985 19.0813 118.592 20.9573 118.592 23.44C118.592 23.6827 118.583 23.9533 118.564 24.252C118.545 24.532 118.527 24.784 118.508 25.008H109.044C109.137 25.8667 109.539 26.548 110.248 27.052C110.957 27.556 111.909 27.808 113.104 27.808C113.869 27.808 114.616 27.7427 115.344 27.612C116.091 27.4627 116.697 27.2853 117.164 27.08L117.724 30.468C117.5 30.58 117.201 30.692 116.828 30.804C116.455 30.916 116.035 31.0093 115.568 31.084C115.12 31.1773 114.635 31.252 114.112 31.308C113.589 31.364 113.067 31.392 112.544 31.392C111.219 31.392 110.061 31.196 109.072 30.804C108.101 30.412 107.289 29.88 106.636 29.208C106.001 28.5173 105.525 27.7053 105.208 26.772C104.909 25.8387 104.76 24.8307 104.76 23.748ZM114.56 22.152C114.541 21.7973 114.476 21.452 114.364 21.116C114.271 20.78 114.112 20.4813 113.888 20.22C113.683 19.9587 113.412 19.744 113.076 19.576C112.759 19.408 112.357 19.324 111.872 19.324C111.405 19.324 111.004 19.408 110.668 19.576C110.332 19.7253 110.052 19.9307 109.828 20.192C109.604 20.4533 109.427 20.7613 109.296 21.116C109.184 21.452 109.1 21.7973 109.044 22.152H114.56ZM121.812 16.776C122.521 16.5707 123.436 16.384 124.556 16.216C125.676 16.0293 126.852 15.936 128.084 15.936C129.334 15.936 130.37 16.104 131.192 16.44C132.032 16.7573 132.694 17.2147 133.18 17.812C133.665 18.4093 134.01 19.1187 134.216 19.94C134.421 20.7613 134.524 21.676 134.524 22.684V31H130.352V23.188C130.352 21.844 130.174 20.892 129.82 20.332C129.465 19.772 128.802 19.492 127.832 19.492C127.533 19.492 127.216 19.5107 126.88 19.548C126.544 19.5667 126.245 19.5947 125.984 19.632V31H121.812V16.776ZM138.16 12.604L142.332 11.932V16.272H147.344V19.744H142.332V24.924C142.332 25.8013 142.481 26.5013 142.78 27.024C143.097 27.5467 143.723 27.808 144.656 27.808C145.104 27.808 145.561 27.7707 146.028 27.696C146.513 27.6027 146.952 27.4813 147.344 27.332L147.932 30.58C147.428 30.7853 146.868 30.9627 146.252 31.112C145.636 31.2613 144.88 31.336 143.984 31.336C142.845 31.336 141.903 31.1867 141.156 30.888C140.409 30.5707 139.812 30.1413 139.364 29.6C138.916 29.04 138.599 28.368 138.412 27.584C138.244 26.8 138.16 25.932 138.16 24.98V12.604Z" fill="#FF5A30"/>
<path d="M51.392 73.596C51.728 74.212 52.1107 74.9773 52.54 75.892C52.988 76.788 53.4453 77.768 53.912 78.832C54.3973 79.8773 54.8733 80.9507 55.34 82.052C55.8067 83.1533 56.2453 84.1893 56.656 85.16C57.0667 84.1893 57.5053 83.1533 57.972 82.052C58.4387 80.9507 58.9053 79.8773 59.372 78.832C59.8573 77.768 60.3147 76.788 60.744 75.892C61.192 74.9773 61.584 74.212 61.92 73.596H65.896C66.0827 74.884 66.2507 76.3307 66.4 77.936C66.568 79.5227 66.708 81.184 66.82 82.92C66.9507 84.6373 67.0627 86.364 67.156 88.1C67.268 89.836 67.3613 91.4693 67.436 93H63.18C63.124 91.1147 63.0493 89.0613 62.956 86.84C62.8627 84.6187 62.7227 82.3787 62.536 80.12C62.2 80.904 61.8267 81.772 61.416 82.724C61.0053 83.676 60.5947 84.628 60.184 85.58C59.792 86.532 59.4093 87.4467 59.036 88.324C58.6627 89.1827 58.3453 89.92 58.084 90.536H55.032C54.7707 89.92 54.4533 89.1827 54.08 88.324C53.7067 87.4467 53.3147 86.532 52.904 85.58C52.512 84.628 52.1107 83.676 51.7 82.724C51.2893 81.772 50.916 80.904 50.58 80.12C50.3933 82.3787 50.2533 84.6187 50.16 86.84C50.0667 89.0613 49.992 91.1147 49.936 93H45.68C45.7547 91.4693 45.8387 89.836 45.932 88.1C46.044 86.364 46.156 84.6373 46.268 82.92C46.3987 81.184 46.5387 79.5227 46.688 77.936C46.856 76.3307 47.0333 74.884 47.22 73.596H51.392ZM76.7169 90.088C77.1276 90.088 77.5196 90.0787 77.8929 90.06C78.2662 90.0413 78.5649 90.0133 78.7889 89.976V86.812C78.6209 86.7747 78.3689 86.7373 78.0329 86.7C77.6969 86.6627 77.3889 86.644 77.1089 86.644C76.7169 86.644 76.3436 86.672 75.9889 86.728C75.6529 86.7653 75.3542 86.8493 75.0929 86.98C74.8316 87.1107 74.6262 87.288 74.4769 87.512C74.3276 87.736 74.2529 88.016 74.2529 88.352C74.2529 89.0053 74.4676 89.4627 74.8969 89.724C75.3449 89.9667 75.9516 90.088 76.7169 90.088ZM76.3809 77.88C77.6129 77.88 78.6396 78.02 79.4609 78.3C80.2822 78.58 80.9356 78.9813 81.4209 79.504C81.9249 80.0267 82.2796 80.6613 82.4849 81.408C82.6902 82.1547 82.7929 82.9853 82.7929 83.9V92.58C82.1956 92.7107 81.3649 92.86 80.3009 93.028C79.2369 93.2147 77.9489 93.308 76.4369 93.308C75.4849 93.308 74.6169 93.224 73.8329 93.056C73.0676 92.888 72.4049 92.6173 71.8449 92.244C71.2849 91.852 70.8556 91.348 70.5569 90.732C70.2582 90.116 70.1089 89.36 70.1089 88.464C70.1089 87.6053 70.2769 86.8773 70.6129 86.28C70.9676 85.6827 71.4342 85.2067 72.0129 84.852C72.5916 84.4973 73.2542 84.2453 74.0009 84.096C74.7476 83.928 75.5222 83.844 76.3249 83.844C76.8662 83.844 77.3422 83.872 77.7529 83.928C78.1822 83.9653 78.5276 84.0213 78.7889 84.096V83.704C78.7889 82.9947 78.5742 82.4253 78.1449 81.996C77.7156 81.5667 76.9689 81.352 75.9049 81.352C75.1956 81.352 74.4956 81.408 73.8049 81.52C73.1142 81.6133 72.5169 81.7533 72.0129 81.94L71.4809 78.58C71.7236 78.5053 72.0222 78.4307 72.3769 78.356C72.7502 78.2627 73.1516 78.188 73.5809 78.132C74.0102 78.0573 74.4582 78.0013 74.9249 77.964C75.4102 77.908 75.8956 77.88 76.3809 77.88ZM95.4415 81.968C95.0681 81.8747 94.6295 81.7813 94.1255 81.688C93.6215 81.576 93.0801 81.52 92.5015 81.52C92.2401 81.52 91.9228 81.548 91.5495 81.604C91.1948 81.6413 90.9241 81.688 90.7375 81.744V93H86.5655V79.056C87.3121 78.7947 88.1895 78.552 89.1975 78.328C90.2241 78.0853 91.3628 77.964 92.6135 77.964C92.8375 77.964 93.1081 77.9827 93.4255 78.02C93.7428 78.0387 94.0601 78.076 94.3775 78.132C94.6948 78.1693 95.0121 78.2253 95.3295 78.3C95.6468 78.356 95.9175 78.4307 96.1415 78.524L95.4415 81.968ZM97.4045 85.636C97.4045 84.572 97.5725 83.5733 97.9085 82.64C98.2632 81.688 98.7672 80.8667 99.4205 80.176C100.074 79.4667 100.867 78.9067 101.801 78.496C102.734 78.0853 103.798 77.88 104.993 77.88C105.777 77.88 106.495 77.9547 107.149 78.104C107.802 78.2347 108.437 78.4307 109.053 78.692L108.185 82.024C107.793 81.8747 107.363 81.744 106.897 81.632C106.43 81.52 105.907 81.464 105.329 81.464C104.097 81.464 103.173 81.8467 102.557 82.612C101.959 83.3773 101.661 84.3853 101.661 85.636C101.661 86.9613 101.941 87.988 102.501 88.716C103.079 89.444 104.078 89.808 105.497 89.808C106.001 89.808 106.542 89.7613 107.121 89.668C107.699 89.5747 108.231 89.4253 108.717 89.22L109.305 92.636C108.819 92.8413 108.213 93.0187 107.485 93.168C106.757 93.3173 105.954 93.392 105.077 93.392C103.733 93.392 102.575 93.196 101.605 92.804C100.634 92.3933 99.8312 91.8427 99.1965 91.152C98.5805 90.4613 98.1232 89.6493 97.8245 88.716C97.5445 87.764 97.4045 86.7373 97.4045 85.636ZM112.105 93V71.944L116.277 71.272V78.328C116.557 78.2347 116.911 78.1507 117.341 78.076C117.789 77.9827 118.218 77.936 118.629 77.936C119.823 77.936 120.813 78.104 121.597 78.44C122.399 78.7573 123.034 79.2147 123.501 79.812C123.986 80.4093 124.322 81.1187 124.509 81.94C124.714 82.7613 124.817 83.676 124.817 84.684V93H120.645V85.188C120.645 83.844 120.467 82.892 120.113 82.332C119.777 81.772 119.142 81.492 118.209 81.492C117.835 81.492 117.481 81.5293 117.145 81.604C116.827 81.66 116.538 81.7253 116.277 81.8V93H112.105ZM147.247 78.692C147.247 79.4013 147.107 80.0827 146.827 80.736C146.547 81.3893 146.183 82.024 145.735 82.64C145.287 83.2373 144.783 83.816 144.223 84.376C143.663 84.936 143.113 85.468 142.571 85.972C142.291 86.2333 141.983 86.532 141.647 86.868C141.33 87.1853 141.022 87.512 140.723 87.848C140.425 88.184 140.154 88.5013 139.911 88.8C139.687 89.08 139.547 89.3133 139.491 89.5H147.835V93H134.899C134.862 92.7947 134.843 92.5333 134.843 92.216C134.843 91.8987 134.843 91.6747 134.843 91.544C134.843 90.648 134.983 89.8267 135.263 89.08C135.562 88.3333 135.945 87.6427 136.411 87.008C136.878 86.3547 137.401 85.748 137.979 85.188C138.577 84.628 139.165 84.068 139.743 83.508C140.191 83.0787 140.611 82.6773 141.003 82.304C141.395 81.912 141.741 81.5387 142.039 81.184C142.338 80.8107 142.571 80.4467 142.739 80.092C142.907 79.7187 142.991 79.3453 142.991 78.972C142.991 78.1507 142.758 77.572 142.291 77.236C141.825 76.9 141.246 76.732 140.555 76.732C140.051 76.732 139.575 76.816 139.127 76.984C138.698 77.1333 138.297 77.32 137.923 77.544C137.569 77.7493 137.261 77.964 136.999 78.188C136.738 78.3933 136.542 78.5613 136.411 78.692L134.339 75.78C135.161 75.0147 136.113 74.3893 137.195 73.904C138.297 73.4 139.473 73.148 140.723 73.148C141.862 73.148 142.842 73.2787 143.663 73.54C144.485 73.8013 145.157 74.1747 145.679 74.66C146.221 75.1267 146.613 75.7053 146.855 76.396C147.117 77.068 147.247 77.8333 147.247 78.692ZM164.225 83.256C164.225 86.5227 163.6 89.0333 162.349 90.788C161.117 92.524 159.409 93.392 157.225 93.392C155.041 93.392 153.324 92.524 152.073 90.788C150.841 89.0333 150.225 86.5227 150.225 83.256C150.225 81.632 150.384 80.1947 150.701 78.944C151.037 77.6933 151.513 76.6387 152.129 75.78C152.745 74.9213 153.483 74.268 154.341 73.82C155.2 73.372 156.161 73.148 157.225 73.148C159.409 73.148 161.117 74.0253 162.349 75.78C163.6 77.516 164.225 80.008 164.225 83.256ZM159.969 83.256C159.969 82.2853 159.923 81.408 159.829 80.624C159.736 79.8213 159.587 79.1307 159.381 78.552C159.176 77.9733 158.896 77.5253 158.541 77.208C158.187 76.8907 157.748 76.732 157.225 76.732C156.703 76.732 156.264 76.8907 155.909 77.208C155.573 77.5253 155.293 77.9733 155.069 78.552C154.864 79.1307 154.715 79.8213 154.621 80.624C154.528 81.408 154.481 82.2853 154.481 83.256C154.481 84.2267 154.528 85.1133 154.621 85.916C154.715 86.7187 154.864 87.4093 155.069 87.988C155.293 88.5667 155.573 89.0147 155.909 89.332C156.264 89.6493 156.703 89.808 157.225 89.808C157.748 89.808 158.187 89.6493 158.541 89.332C158.896 89.0147 159.176 88.5667 159.381 87.988C159.587 87.4093 159.736 86.7187 159.829 85.916C159.923 85.1133 159.969 84.2267 159.969 83.256ZM167.148 77.628C167.689 77.404 168.249 77.152 168.828 76.872C169.425 76.5733 170.004 76.256 170.564 75.92C171.124 75.5653 171.656 75.2013 172.16 74.828C172.682 74.436 173.149 74.0253 173.56 73.596H176.472V93H172.3V79.028C171.74 79.4013 171.114 79.7467 170.424 80.064C169.733 80.3627 169.061 80.624 168.408 80.848L167.148 77.628ZM189.194 82.584C189.623 82.584 190.071 82.5467 190.538 82.472C191.004 82.3787 191.35 82.2573 191.574 82.108V81.856C191.574 81.7813 191.574 81.7067 191.574 81.632C191.592 81.5573 191.602 81.492 191.602 81.436C191.583 80.764 191.527 80.1387 191.434 79.56C191.34 78.9627 191.182 78.4493 190.958 78.02C190.734 77.572 190.426 77.2267 190.034 76.984C189.66 76.7227 189.194 76.592 188.634 76.592C188.186 76.592 187.794 76.6853 187.458 76.872C187.122 77.0587 186.851 77.3013 186.646 77.6C186.44 77.8987 186.282 78.2253 186.17 78.58C186.076 78.9347 186.03 79.28 186.03 79.616C186.03 80.624 186.272 81.3707 186.758 81.856C187.262 82.3413 188.074 82.584 189.194 82.584ZM191.238 85.3C190.846 85.4867 190.407 85.6267 189.922 85.72C189.455 85.7947 189.054 85.832 188.718 85.832C187.504 85.832 186.468 85.692 185.61 85.412C184.751 85.1133 184.042 84.7027 183.482 84.18C182.94 83.6387 182.539 82.9947 182.278 82.248C182.016 81.5013 181.886 80.68 181.886 79.784C181.886 79.0373 182.007 78.272 182.25 77.488C182.511 76.704 182.912 75.9947 183.454 75.36C183.995 74.7067 184.676 74.1747 185.498 73.764C186.338 73.3347 187.346 73.12 188.522 73.12C190.93 73.12 192.74 73.8667 193.954 75.36C195.186 76.8347 195.802 78.9627 195.802 81.744C195.802 83.5733 195.559 85.188 195.074 86.588C194.607 87.988 193.87 89.164 192.862 90.116C191.872 91.068 190.603 91.796 189.054 92.3C187.504 92.7853 185.666 93.0373 183.538 93.056C183.519 92.4587 183.491 91.88 183.454 91.32C183.416 90.76 183.379 90.1813 183.342 89.584C184.406 89.5653 185.367 89.4907 186.226 89.36C187.084 89.2107 187.84 88.9773 188.494 88.66C189.147 88.324 189.698 87.8853 190.146 87.344C190.612 86.8027 190.976 86.1213 191.238 85.3Z" fill="#9A9CA5"/>
<path d="M59.26 155C58.0093 152.779 56.656 150.585 55.2 148.42C53.744 146.255 52.1947 144.211 50.552 142.288V155H46.24V135.596H49.796C50.412 136.212 51.0933 136.968 51.84 137.864C52.5867 138.76 53.3427 139.721 54.108 140.748C54.892 141.756 55.6667 142.811 56.432 143.912C57.1973 144.995 57.916 146.04 58.588 147.048V135.596H62.928V155H59.26ZM80.9001 147.608C80.9001 148.765 80.7321 149.829 80.3961 150.8C80.0601 151.752 79.5747 152.573 78.9401 153.264C78.3054 153.936 77.5401 154.459 76.6441 154.832C75.7667 155.205 74.7774 155.392 73.6761 155.392C72.5934 155.392 71.6041 155.205 70.7081 154.832C69.8307 154.459 69.0747 153.936 68.4401 153.264C67.8054 152.573 67.3107 151.752 66.9561 150.8C66.6014 149.829 66.4241 148.765 66.4241 147.608C66.4241 146.451 66.6014 145.396 66.9561 144.444C67.3294 143.492 67.8334 142.68 68.4681 142.008C69.1214 141.336 69.8867 140.813 70.7641 140.44C71.6601 140.067 72.6307 139.88 73.6761 139.88C74.7401 139.88 75.7107 140.067 76.5881 140.44C77.4841 140.813 78.2494 141.336 78.8841 142.008C79.5187 142.68 80.0134 143.492 80.3681 144.444C80.7227 145.396 80.9001 146.451 80.9001 147.608ZM76.6441 147.608C76.6441 146.32 76.3827 145.312 75.8601 144.584C75.3561 143.837 74.6281 143.464 73.6761 143.464C72.7241 143.464 71.9867 143.837 71.4641 144.584C70.9414 145.312 70.6801 146.32 70.6801 147.608C70.6801 148.896 70.9414 149.923 71.4641 150.688C71.9867 151.435 72.7241 151.808 73.6761 151.808C74.6281 151.808 75.3561 151.435 75.8601 150.688C76.3827 149.923 76.6441 148.896 76.6441 147.608ZM87.7531 155C86.8011 153.133 85.8304 150.949 84.8411 148.448C83.8704 145.947 82.9464 143.221 82.0691 140.272H86.4931C86.6797 141 86.8944 141.793 87.1371 142.652C87.3984 143.492 87.6597 144.351 87.9211 145.228C88.2011 146.087 88.4717 146.927 88.7331 147.748C89.0131 148.569 89.2837 149.316 89.5451 149.988C89.7877 149.316 90.0491 148.569 90.3291 147.748C90.6091 146.927 90.8797 146.087 91.1411 145.228C91.4211 144.351 91.6824 143.492 91.9251 142.652C92.1864 141.793 92.4104 141 92.5971 140.272H96.9091C96.0317 143.221 95.0984 145.947 94.1091 148.448C93.1384 150.949 92.1771 153.133 91.2251 155H87.7531ZM98.0608 147.748C98.0608 146.441 98.2568 145.303 98.6488 144.332C99.0594 143.343 99.5914 142.521 100.245 141.868C100.898 141.215 101.645 140.72 102.485 140.384C103.343 140.048 104.221 139.88 105.117 139.88C107.207 139.88 108.859 140.524 110.073 141.812C111.286 143.081 111.893 144.957 111.893 147.44C111.893 147.683 111.883 147.953 111.865 148.252C111.846 148.532 111.827 148.784 111.809 149.008H102.345C102.438 149.867 102.839 150.548 103.549 151.052C104.258 151.556 105.21 151.808 106.405 151.808C107.17 151.808 107.917 151.743 108.645 151.612C109.391 151.463 109.998 151.285 110.465 151.08L111.025 154.468C110.801 154.58 110.502 154.692 110.129 154.804C109.755 154.916 109.335 155.009 108.869 155.084C108.421 155.177 107.935 155.252 107.413 155.308C106.89 155.364 106.367 155.392 105.845 155.392C104.519 155.392 103.362 155.196 102.373 154.804C101.402 154.412 100.59 153.88 99.9368 153.208C99.3021 152.517 98.8261 151.705 98.5088 150.772C98.2101 149.839 98.0608 148.831 98.0608 147.748ZM107.861 146.152C107.842 145.797 107.777 145.452 107.665 145.116C107.571 144.78 107.413 144.481 107.189 144.22C106.983 143.959 106.713 143.744 106.377 143.576C106.059 143.408 105.658 143.324 105.173 143.324C104.706 143.324 104.305 143.408 103.969 143.576C103.633 143.725 103.353 143.931 103.129 144.192C102.905 144.453 102.727 144.761 102.597 145.116C102.485 145.452 102.401 145.797 102.345 146.152H107.861ZM123.204 147.188C123.204 145.844 123.027 144.892 122.672 144.332C122.336 143.772 121.748 143.492 120.908 143.492C120.647 143.492 120.376 143.511 120.096 143.548C119.816 143.567 119.546 143.595 119.284 143.632V155H115.112V140.776C115.467 140.683 115.878 140.589 116.344 140.496C116.83 140.384 117.334 140.291 117.856 140.216C118.398 140.123 118.948 140.057 119.508 140.02C120.068 139.964 120.619 139.936 121.16 139.936C122.224 139.936 123.083 140.076 123.736 140.356C124.408 140.617 124.959 140.935 125.388 141.308C125.986 140.879 126.667 140.543 127.432 140.3C128.216 140.057 128.935 139.936 129.588 139.936C130.764 139.936 131.726 140.104 132.472 140.44C133.238 140.757 133.844 141.215 134.292 141.812C134.74 142.409 135.048 143.119 135.216 143.94C135.384 144.761 135.468 145.676 135.468 146.684V155H131.296V147.188C131.296 145.844 131.119 144.892 130.764 144.332C130.428 143.772 129.84 143.492 129 143.492C128.776 143.492 128.459 143.548 128.048 143.66C127.656 143.772 127.33 143.912 127.068 144.08C127.199 144.509 127.283 144.967 127.32 145.452C127.358 145.919 127.376 146.423 127.376 146.964V155H123.204V147.188ZM148.693 147.524C148.693 144.836 147.704 143.492 145.725 143.492C145.296 143.492 144.866 143.548 144.437 143.66C144.026 143.772 143.69 143.912 143.429 144.08V151.668C143.634 151.705 143.896 151.743 144.213 151.78C144.53 151.799 144.876 151.808 145.249 151.808C146.388 151.808 147.246 151.416 147.825 150.632C148.404 149.848 148.693 148.812 148.693 147.524ZM152.949 147.636C152.949 148.812 152.772 149.876 152.417 150.828C152.081 151.78 151.586 152.592 150.933 153.264C150.28 153.936 149.477 154.459 148.525 154.832C147.573 155.187 146.49 155.364 145.277 155.364C144.773 155.364 144.241 155.336 143.681 155.28C143.14 155.243 142.598 155.187 142.057 155.112C141.534 155.037 141.03 154.953 140.545 154.86C140.06 154.748 139.63 154.636 139.257 154.524V133.944L143.429 133.272V140.608C143.896 140.403 144.381 140.244 144.885 140.132C145.389 140.02 145.93 139.964 146.509 139.964C147.554 139.964 148.478 140.151 149.281 140.524C150.084 140.879 150.756 141.392 151.297 142.064C151.838 142.736 152.249 143.548 152.529 144.5C152.809 145.433 152.949 146.479 152.949 147.636ZM155.455 147.748C155.455 146.441 155.651 145.303 156.043 144.332C156.454 143.343 156.986 142.521 157.639 141.868C158.293 141.215 159.039 140.72 159.879 140.384C160.738 140.048 161.615 139.88 162.511 139.88C164.602 139.88 166.254 140.524 167.467 141.812C168.681 143.081 169.287 144.957 169.287 147.44C169.287 147.683 169.278 147.953 169.259 148.252C169.241 148.532 169.222 148.784 169.203 149.008H159.739C159.833 149.867 160.234 150.548 160.943 151.052C161.653 151.556 162.605 151.808 163.799 151.808C164.565 151.808 165.311 151.743 166.039 151.612C166.786 151.463 167.393 151.285 167.859 151.08L168.419 154.468C168.195 154.58 167.897 154.692 167.523 154.804C167.15 154.916 166.73 155.009 166.263 155.084C165.815 155.177 165.33 155.252 164.807 155.308C164.285 155.364 163.762 155.392 163.239 155.392C161.914 155.392 160.757 155.196 159.767 154.804C158.797 154.412 157.985 153.88 157.331 153.208C156.697 152.517 156.221 151.705 155.903 150.772C155.605 149.839 155.455 148.831 155.455 147.748ZM165.255 146.152C165.237 145.797 165.171 145.452 165.059 145.116C164.966 144.78 164.807 144.481 164.583 144.22C164.378 143.959 164.107 143.744 163.771 143.576C163.454 143.408 163.053 143.324 162.567 143.324C162.101 143.324 161.699 143.408 161.363 143.576C161.027 143.725 160.747 143.931 160.523 144.192C160.299 144.453 160.122 144.761 159.991 145.116C159.879 145.452 159.795 145.797 159.739 146.152H165.255ZM181.383 143.968C181.01 143.875 180.571 143.781 180.067 143.688C179.563 143.576 179.022 143.52 178.443 143.52C178.182 143.52 177.864 143.548 177.491 143.604C177.136 143.641 176.866 143.688 176.679 143.744V155H172.507V141.056C173.254 140.795 174.131 140.552 175.139 140.328C176.166 140.085 177.304 139.964 178.555 139.964C178.779 139.964 179.05 139.983 179.367 140.02C179.684 140.039 180.002 140.076 180.319 140.132C180.636 140.169 180.954 140.225 181.271 140.3C181.588 140.356 181.859 140.431 182.083 140.524L181.383 143.968ZM202.974 140.692C202.974 141.401 202.834 142.083 202.554 142.736C202.274 143.389 201.91 144.024 201.462 144.64C201.014 145.237 200.51 145.816 199.95 146.376C199.39 146.936 198.839 147.468 198.298 147.972C198.018 148.233 197.71 148.532 197.374 148.868C197.057 149.185 196.749 149.512 196.45 149.848C196.151 150.184 195.881 150.501 195.638 150.8C195.414 151.08 195.274 151.313 195.218 151.5H203.562V155H190.626C190.589 154.795 190.57 154.533 190.57 154.216C190.57 153.899 190.57 153.675 190.57 153.544C190.57 152.648 190.71 151.827 190.99 151.08C191.289 150.333 191.671 149.643 192.138 149.008C192.605 148.355 193.127 147.748 193.706 147.188C194.303 146.628 194.891 146.068 195.47 145.508C195.918 145.079 196.338 144.677 196.73 144.304C197.122 143.912 197.467 143.539 197.766 143.184C198.065 142.811 198.298 142.447 198.466 142.092C198.634 141.719 198.718 141.345 198.718 140.972C198.718 140.151 198.485 139.572 198.018 139.236C197.551 138.9 196.973 138.732 196.282 138.732C195.778 138.732 195.302 138.816 194.854 138.984C194.425 139.133 194.023 139.32 193.65 139.544C193.295 139.749 192.987 139.964 192.726 140.188C192.465 140.393 192.269 140.561 192.138 140.692L190.066 137.78C190.887 137.015 191.839 136.389 192.922 135.904C194.023 135.4 195.199 135.148 196.45 135.148C197.589 135.148 198.569 135.279 199.39 135.54C200.211 135.801 200.883 136.175 201.406 136.66C201.947 137.127 202.339 137.705 202.582 138.396C202.843 139.068 202.974 139.833 202.974 140.692ZM219.952 145.256C219.952 148.523 219.327 151.033 218.076 152.788C216.844 154.524 215.136 155.392 212.952 155.392C210.768 155.392 209.051 154.524 207.8 152.788C206.568 151.033 205.952 148.523 205.952 145.256C205.952 143.632 206.111 142.195 206.428 140.944C206.764 139.693 207.24 138.639 207.856 137.78C208.472 136.921 209.209 136.268 210.068 135.82C210.927 135.372 211.888 135.148 212.952 135.148C215.136 135.148 216.844 136.025 218.076 137.78C219.327 139.516 219.952 142.008 219.952 145.256ZM215.696 145.256C215.696 144.285 215.649 143.408 215.556 142.624C215.463 141.821 215.313 141.131 215.108 140.552C214.903 139.973 214.623 139.525 214.268 139.208C213.913 138.891 213.475 138.732 212.952 138.732C212.429 138.732 211.991 138.891 211.636 139.208C211.3 139.525 211.02 139.973 210.796 140.552C210.591 141.131 210.441 141.821 210.348 142.624C210.255 143.408 210.208 144.285 210.208 145.256C210.208 146.227 210.255 147.113 210.348 147.916C210.441 148.719 210.591 149.409 210.796 149.988C211.02 150.567 211.3 151.015 211.636 151.332C211.991 151.649 212.429 151.808 212.952 151.808C213.475 151.808 213.913 151.649 214.268 151.332C214.623 151.015 214.903 150.567 215.108 149.988C215.313 149.409 215.463 148.719 215.556 147.916C215.649 147.113 215.696 146.227 215.696 145.256ZM222.874 139.628C223.415 139.404 223.975 139.152 224.554 138.872C225.151 138.573 225.73 138.256 226.29 137.92C226.85 137.565 227.382 137.201 227.886 136.828C228.409 136.436 228.875 136.025 229.286 135.596H232.198V155H228.026V141.028C227.466 141.401 226.841 141.747 226.15 142.064C225.459 142.363 224.787 142.624 224.134 142.848L222.874 139.628ZM251.668 149.596C251.668 150.436 251.519 151.211 251.22 151.92C250.94 152.611 250.511 153.217 249.932 153.74C249.353 154.263 248.625 154.673 247.748 154.972C246.889 155.252 245.891 155.392 244.752 155.392C243.445 155.392 242.353 155.215 241.476 154.86C240.617 154.487 239.917 154.029 239.376 153.488C238.853 152.947 238.48 152.359 238.256 151.724C238.032 151.071 237.92 150.473 237.92 149.932C237.92 149.372 237.995 148.859 238.144 148.392C238.293 147.925 238.499 147.505 238.76 147.132C239.021 146.74 239.311 146.385 239.628 146.068C239.964 145.751 240.319 145.452 240.692 145.172C239.889 144.519 239.292 143.875 238.9 143.24C238.527 142.605 238.34 141.793 238.34 140.804C238.34 140.057 238.489 139.339 238.788 138.648C239.105 137.957 239.544 137.36 240.104 136.856C240.664 136.333 241.336 135.923 242.12 135.624C242.923 135.307 243.809 135.148 244.78 135.148C245.919 135.148 246.889 135.316 247.692 135.652C248.513 135.969 249.185 136.38 249.708 136.884C250.231 137.388 250.604 137.957 250.828 138.592C251.071 139.208 251.192 139.824 251.192 140.44C251.192 141.336 250.949 142.176 250.464 142.96C249.997 143.725 249.409 144.332 248.7 144.78C249.764 145.471 250.52 146.199 250.968 146.964C251.435 147.711 251.668 148.588 251.668 149.596ZM241.98 149.764C241.98 149.988 242.027 150.24 242.12 150.52C242.232 150.781 242.4 151.024 242.624 151.248C242.848 151.472 243.137 151.659 243.492 151.808C243.847 151.957 244.276 152.032 244.78 152.032C245.751 152.032 246.46 151.799 246.908 151.332C247.356 150.865 247.58 150.343 247.58 149.764C247.58 149.335 247.477 148.952 247.272 148.616C247.085 148.28 246.824 147.991 246.488 147.748C246.152 147.487 245.751 147.263 245.284 147.076C244.836 146.871 244.351 146.684 243.828 146.516C243.305 146.908 242.867 147.365 242.512 147.888C242.157 148.411 241.98 149.036 241.98 149.764ZM247.16 140.552C247.16 140.347 247.113 140.132 247.02 139.908C246.945 139.665 246.805 139.441 246.6 139.236C246.413 139.031 246.171 138.863 245.872 138.732C245.573 138.583 245.209 138.508 244.78 138.508C244.369 138.508 244.015 138.573 243.716 138.704C243.417 138.835 243.165 139.012 242.96 139.236C242.773 139.441 242.633 139.665 242.54 139.908C242.447 140.151 242.4 140.384 242.4 140.608C242.4 141.205 242.615 141.765 243.044 142.288C243.492 142.811 244.248 143.259 245.312 143.632C245.909 143.259 246.367 142.829 246.684 142.344C247.001 141.859 247.16 141.261 247.16 140.552Z" fill="#9A9CA5"/>
<path d="M56.852 210.476C56.852 211.428 56.74 212.324 56.516 213.164C56.3107 214.004 55.9373 214.741 55.396 215.376C54.8733 215.992 54.1547 216.487 53.24 216.86C52.344 217.215 51.2053 217.392 49.824 217.392C48.5547 217.392 47.4627 217.243 46.548 216.944C45.6333 216.627 44.8773 216.263 44.28 215.852L45.736 212.464C46.2773 212.781 46.856 213.061 47.472 213.304C48.088 213.547 48.76 213.668 49.488 213.668C50.552 213.668 51.3173 213.407 51.784 212.884C52.2507 212.361 52.484 211.484 52.484 210.252V197.596H56.852V210.476ZM73.3523 216.496C72.643 216.701 71.7283 216.888 70.6083 217.056C69.4883 217.243 68.3123 217.336 67.0803 217.336C65.8296 217.336 64.7843 217.168 63.9443 216.832C63.123 216.496 62.4696 216.029 61.9843 215.432C61.499 214.816 61.1536 214.088 60.9483 213.248C60.743 212.408 60.6403 211.484 60.6403 210.476V202.272H64.8123V209.972C64.8123 211.316 64.9896 212.287 65.3443 212.884C65.699 213.481 66.3616 213.78 67.3323 213.78C67.631 213.78 67.9483 213.771 68.2843 213.752C68.6203 213.715 68.919 213.677 69.1803 213.64V202.272H73.3523V216.496ZM83.1486 217.28C81.9353 217.261 80.9459 217.131 80.1806 216.888C79.4339 216.645 78.8366 216.309 78.3886 215.88C77.9593 215.432 77.6606 214.9 77.4926 214.284C77.3433 213.649 77.2686 212.94 77.2686 212.156V195.944L81.4406 195.272V211.316C81.4406 211.689 81.4686 212.025 81.5246 212.324C81.5806 212.623 81.6833 212.875 81.8326 213.08C82.0006 213.285 82.2339 213.453 82.5326 213.584C82.8313 213.715 83.2326 213.799 83.7366 213.836L83.1486 217.28ZM98.9032 202.272C98.0632 205.109 97.1859 207.769 96.2712 210.252C95.3565 212.735 94.3579 215.143 93.2752 217.476C92.8832 218.316 92.4912 219.025 92.0992 219.604C91.7072 220.201 91.2779 220.687 90.8112 221.06C90.3445 221.452 89.8125 221.732 89.2152 221.9C88.6365 222.087 87.9552 222.18 87.1712 222.18C86.5179 222.18 85.9112 222.115 85.3512 221.984C84.8099 221.872 84.3619 221.741 84.0072 221.592L84.7352 218.26C85.1645 218.409 85.5472 218.512 85.8832 218.568C86.2192 218.624 86.5739 218.652 86.9472 218.652C87.6939 218.652 88.2632 218.447 88.6552 218.036C89.0659 217.644 89.4112 217.093 89.6912 216.384C88.7392 214.517 87.7872 212.427 86.8352 210.112C85.8832 207.779 84.9872 205.165 84.1472 202.272H88.5712C88.7579 203 88.9725 203.793 89.2152 204.652C89.4765 205.492 89.7472 206.351 90.0272 207.228C90.3072 208.087 90.5872 208.927 90.8672 209.748C91.1659 210.569 91.4459 211.316 91.7072 211.988C91.9499 211.316 92.2019 210.569 92.4632 209.748C92.7245 208.927 92.9765 208.087 93.2192 207.228C93.4805 206.351 93.7232 205.492 93.9472 204.652C94.1899 203.793 94.4045 203 94.5912 202.272H98.9032ZM119.794 202.692C119.794 203.401 119.654 204.083 119.374 204.736C119.094 205.389 118.73 206.024 118.282 206.64C117.834 207.237 117.33 207.816 116.77 208.376C116.21 208.936 115.66 209.468 115.118 209.972C114.838 210.233 114.53 210.532 114.194 210.868C113.877 211.185 113.569 211.512 113.27 211.848C112.972 212.184 112.701 212.501 112.458 212.8C112.234 213.08 112.094 213.313 112.038 213.5H120.382V217H107.446C107.409 216.795 107.39 216.533 107.39 216.216C107.39 215.899 107.39 215.675 107.39 215.544C107.39 214.648 107.53 213.827 107.81 213.08C108.109 212.333 108.492 211.643 108.958 211.008C109.425 210.355 109.948 209.748 110.526 209.188C111.124 208.628 111.712 208.068 112.29 207.508C112.738 207.079 113.158 206.677 113.55 206.304C113.942 205.912 114.288 205.539 114.586 205.184C114.885 204.811 115.118 204.447 115.286 204.092C115.454 203.719 115.538 203.345 115.538 202.972C115.538 202.151 115.305 201.572 114.838 201.236C114.372 200.9 113.793 200.732 113.102 200.732C112.598 200.732 112.122 200.816 111.674 200.984C111.245 201.133 110.844 201.32 110.47 201.544C110.116 201.749 109.808 201.964 109.546 202.188C109.285 202.393 109.089 202.561 108.958 202.692L106.886 199.78C107.708 199.015 108.66 198.389 109.742 197.904C110.844 197.4 112.02 197.148 113.27 197.148C114.409 197.148 115.389 197.279 116.21 197.54C117.032 197.801 117.704 198.175 118.226 198.66C118.768 199.127 119.16 199.705 119.402 200.396C119.664 201.068 119.794 201.833 119.794 202.692ZM136.772 207.256C136.772 210.523 136.147 213.033 134.896 214.788C133.664 216.524 131.956 217.392 129.772 217.392C127.588 217.392 125.871 216.524 124.62 214.788C123.388 213.033 122.772 210.523 122.772 207.256C122.772 205.632 122.931 204.195 123.248 202.944C123.584 201.693 124.06 200.639 124.676 199.78C125.292 198.921 126.03 198.268 126.888 197.82C127.747 197.372 128.708 197.148 129.772 197.148C131.956 197.148 133.664 198.025 134.896 199.78C136.147 201.516 136.772 204.008 136.772 207.256ZM132.516 207.256C132.516 206.285 132.47 205.408 132.376 204.624C132.283 203.821 132.134 203.131 131.928 202.552C131.723 201.973 131.443 201.525 131.088 201.208C130.734 200.891 130.295 200.732 129.772 200.732C129.25 200.732 128.811 200.891 128.456 201.208C128.12 201.525 127.84 201.973 127.616 202.552C127.411 203.131 127.262 203.821 127.168 204.624C127.075 205.408 127.028 206.285 127.028 207.256C127.028 208.227 127.075 209.113 127.168 209.916C127.262 210.719 127.411 211.409 127.616 211.988C127.84 212.567 128.12 213.015 128.456 213.332C128.811 213.649 129.25 213.808 129.772 213.808C130.295 213.808 130.734 213.649 131.088 213.332C131.443 213.015 131.723 212.567 131.928 211.988C132.134 211.409 132.283 210.719 132.376 209.916C132.47 209.113 132.516 208.227 132.516 207.256ZM139.694 201.628C140.236 201.404 140.796 201.152 141.374 200.872C141.972 200.573 142.55 200.256 143.11 199.92C143.67 199.565 144.202 199.201 144.706 198.828C145.229 198.436 145.696 198.025 146.106 197.596H149.018V217H144.846V203.028C144.286 203.401 143.661 203.747 142.97 204.064C142.28 204.363 141.608 204.624 140.954 204.848L139.694 201.628ZM163.728 211.288C163.728 210.747 163.607 210.271 163.364 209.86C163.122 209.431 162.702 209.076 162.104 208.796C161.507 208.516 160.704 208.301 159.696 208.152C158.688 208.003 157.419 207.928 155.888 207.928C156.094 206.192 156.262 204.428 156.392 202.636C156.523 200.844 156.626 199.164 156.7 197.596H167.2V201.096H160.2C160.163 201.768 160.116 202.421 160.06 203.056C160.023 203.672 159.976 204.213 159.92 204.68C162.646 204.867 164.652 205.511 165.94 206.612C167.247 207.695 167.9 209.207 167.9 211.148C167.9 212.044 167.742 212.875 167.424 213.64C167.107 214.405 166.631 215.068 165.996 215.628C165.362 216.188 164.559 216.627 163.588 216.944C162.636 217.261 161.516 217.42 160.228 217.42C159.724 217.42 159.192 217.383 158.632 217.308C158.091 217.252 157.559 217.168 157.036 217.056C156.532 216.963 156.075 216.86 155.664 216.748C155.254 216.636 154.936 216.524 154.712 216.412L155.468 212.968C155.935 213.173 156.551 213.379 157.316 213.584C158.082 213.771 158.996 213.864 160.06 213.864C161.348 213.864 162.282 213.612 162.86 213.108C163.439 212.585 163.728 211.979 163.728 211.288Z" fill="#9A9CA5"/>
<path d="M59.232 279C59.0267 278.328 58.7933 277.637 58.532 276.928C58.2893 276.219 58.0467 275.509 57.804 274.8H50.244C50.0013 275.509 49.7493 276.219 49.488 276.928C49.2453 277.637 49.0213 278.328 48.816 279H44.28C45.008 276.909 45.6987 274.977 46.352 273.204C47.0053 271.431 47.64 269.76 48.256 268.192C48.8907 266.624 49.5067 265.14 50.104 263.74C50.72 262.321 51.3547 260.94 52.008 259.596H56.18C56.8147 260.94 57.44 262.321 58.056 263.74C58.672 265.14 59.288 266.624 59.904 268.192C60.5387 269.76 61.1827 271.431 61.836 273.204C62.4893 274.977 63.18 276.909 63.908 279H59.232ZM53.996 263.992C53.9027 264.272 53.7627 264.655 53.576 265.14C53.3893 265.625 53.1747 266.185 52.932 266.82C52.6893 267.455 52.4187 268.155 52.12 268.92C51.84 269.685 51.5507 270.488 51.252 271.328H56.768C56.4693 270.488 56.18 269.685 55.9 268.92C55.62 268.155 55.3493 267.455 55.088 266.82C54.8453 266.185 54.6307 265.625 54.444 265.14C54.2573 264.655 54.108 264.272 53.996 263.992ZM78.7117 278.496C78.0024 278.701 77.0877 278.888 75.9677 279.056C74.8477 279.243 73.6717 279.336 72.4397 279.336C71.189 279.336 70.1437 279.168 69.3037 278.832C68.4824 278.496 67.829 278.029 67.3437 277.432C66.8584 276.816 66.513 276.088 66.3077 275.248C66.1024 274.408 65.9997 273.484 65.9997 272.476V264.272H70.1717V271.972C70.1717 273.316 70.349 274.287 70.7037 274.884C71.0584 275.481 71.721 275.78 72.6917 275.78C72.9904 275.78 73.3077 275.771 73.6437 275.752C73.9797 275.715 74.2784 275.677 74.5397 275.64V264.272H78.7117V278.496ZM86.184 271.16C86.184 273.493 87.1266 274.66 89.012 274.66C89.4413 274.66 89.8426 274.604 90.216 274.492C90.5893 274.38 90.9066 274.249 91.168 274.1V267.436C90.9626 267.399 90.72 267.371 90.44 267.352C90.16 267.315 89.8333 267.296 89.46 267.296C88.3586 267.296 87.5373 267.66 86.996 268.388C86.4546 269.116 86.184 270.04 86.184 271.16ZM95.34 277.152C95.34 279.56 94.724 281.343 93.492 282.5C92.2786 283.676 90.3933 284.264 87.836 284.264C86.94 284.264 86.044 284.18 85.148 284.012C84.252 283.863 83.4213 283.657 82.656 283.396L83.384 279.896C84.0373 280.157 84.7186 280.363 85.428 280.512C86.156 280.661 86.9773 280.736 87.892 280.736C89.0866 280.736 89.9266 280.475 90.412 279.952C90.916 279.429 91.168 278.757 91.168 277.936V277.404C90.72 277.609 90.2533 277.768 89.768 277.88C89.3013 277.973 88.788 278.02 88.228 278.02C86.1933 278.02 84.6346 277.423 83.552 276.228C82.4693 275.015 81.928 273.325 81.928 271.16C81.928 270.077 82.096 269.097 82.432 268.22C82.768 267.324 83.2533 266.559 83.888 265.924C84.5413 265.289 85.3346 264.804 86.268 264.468C87.2013 264.113 88.256 263.936 89.432 263.936C89.936 263.936 90.4493 263.964 90.972 264.02C91.5133 264.057 92.0453 264.113 92.568 264.188C93.0906 264.263 93.5853 264.356 94.052 264.468C94.5373 264.561 94.9666 264.664 95.34 264.776V277.152ZM111.825 278.496C111.116 278.701 110.201 278.888 109.081 279.056C107.961 279.243 106.785 279.336 105.553 279.336C104.302 279.336 103.257 279.168 102.417 278.832C101.596 278.496 100.942 278.029 100.457 277.432C99.9716 276.816 99.6263 276.088 99.421 275.248C99.2156 274.408 99.113 273.484 99.113 272.476V264.272H103.285V271.972C103.285 273.316 103.462 274.287 103.817 274.884C104.172 275.481 104.834 275.78 105.805 275.78C106.104 275.78 106.421 275.771 106.757 275.752C107.093 275.715 107.392 275.677 107.653 275.64V264.272H111.825V278.496ZM119.969 276.004C120.735 276.004 121.276 275.929 121.593 275.78C121.911 275.631 122.069 275.341 122.069 274.912C122.069 274.576 121.864 274.287 121.453 274.044C121.043 273.783 120.417 273.493 119.577 273.176C118.924 272.933 118.327 272.681 117.785 272.42C117.263 272.159 116.815 271.851 116.441 271.496C116.068 271.123 115.779 270.684 115.573 270.18C115.368 269.676 115.265 269.069 115.265 268.36C115.265 266.979 115.779 265.887 116.805 265.084C117.832 264.281 119.241 263.88 121.033 263.88C121.929 263.88 122.788 263.964 123.609 264.132C124.431 264.281 125.084 264.449 125.569 264.636L124.841 267.884C124.356 267.716 123.824 267.567 123.245 267.436C122.685 267.305 122.051 267.24 121.341 267.24C120.035 267.24 119.381 267.604 119.381 268.332C119.381 268.5 119.409 268.649 119.465 268.78C119.521 268.911 119.633 269.041 119.801 269.172C119.969 269.284 120.193 269.415 120.473 269.564C120.772 269.695 121.145 269.844 121.593 270.012C122.508 270.348 123.264 270.684 123.861 271.02C124.459 271.337 124.925 271.692 125.261 272.084C125.616 272.457 125.859 272.877 125.989 273.344C126.139 273.811 126.213 274.352 126.213 274.968C126.213 276.424 125.663 277.525 124.561 278.272C123.479 279.019 121.939 279.392 119.941 279.392C118.635 279.392 117.543 279.28 116.665 279.056C115.807 278.832 115.209 278.645 114.873 278.496L115.573 275.108C116.283 275.388 117.011 275.612 117.757 275.78C118.504 275.929 119.241 276.004 119.969 276.004ZM129.191 260.604L133.363 259.932V264.272H138.375V267.744H133.363V272.924C133.363 273.801 133.512 274.501 133.811 275.024C134.128 275.547 134.754 275.808 135.687 275.808C136.135 275.808 136.592 275.771 137.059 275.696C137.544 275.603 137.983 275.481 138.375 275.332L138.963 278.58C138.459 278.785 137.899 278.963 137.283 279.112C136.667 279.261 135.911 279.336 135.015 279.336C133.876 279.336 132.934 279.187 132.187 278.888C131.44 278.571 130.843 278.141 130.395 277.6C129.947 277.04 129.63 276.368 129.443 275.584C129.275 274.8 129.191 273.932 129.191 272.98V260.604ZM160.427 264.692C160.427 265.401 160.287 266.083 160.007 266.736C159.727 267.389 159.363 268.024 158.915 268.64C158.467 269.237 157.963 269.816 157.403 270.376C156.843 270.936 156.292 271.468 155.751 271.972C155.471 272.233 155.163 272.532 154.827 272.868C154.51 273.185 154.202 273.512 153.903 273.848C153.604 274.184 153.334 274.501 153.091 274.8C152.867 275.08 152.727 275.313 152.671 275.5H161.015V279H148.079C148.042 278.795 148.023 278.533 148.023 278.216C148.023 277.899 148.023 277.675 148.023 277.544C148.023 276.648 148.163 275.827 148.443 275.08C148.742 274.333 149.124 273.643 149.591 273.008C150.058 272.355 150.58 271.748 151.159 271.188C151.756 270.628 152.344 270.068 152.923 269.508C153.371 269.079 153.791 268.677 154.183 268.304C154.575 267.912 154.92 267.539 155.219 267.184C155.518 266.811 155.751 266.447 155.919 266.092C156.087 265.719 156.171 265.345 156.171 264.972C156.171 264.151 155.938 263.572 155.471 263.236C155.004 262.9 154.426 262.732 153.735 262.732C153.231 262.732 152.755 262.816 152.307 262.984C151.878 263.133 151.476 263.32 151.103 263.544C150.748 263.749 150.44 263.964 150.179 264.188C149.918 264.393 149.722 264.561 149.591 264.692L147.519 261.78C148.34 261.015 149.292 260.389 150.375 259.904C151.476 259.4 152.652 259.148 153.903 259.148C155.042 259.148 156.022 259.279 156.843 259.54C157.664 259.801 158.336 260.175 158.859 260.66C159.4 261.127 159.792 261.705 160.035 262.396C160.296 263.068 160.427 263.833 160.427 264.692ZM177.405 269.256C177.405 272.523 176.78 275.033 175.529 276.788C174.297 278.524 172.589 279.392 170.405 279.392C168.221 279.392 166.504 278.524 165.253 276.788C164.021 275.033 163.405 272.523 163.405 269.256C163.405 267.632 163.564 266.195 163.881 264.944C164.217 263.693 164.693 262.639 165.309 261.78C165.925 260.921 166.662 260.268 167.521 259.82C168.38 259.372 169.341 259.148 170.405 259.148C172.589 259.148 174.297 260.025 175.529 261.78C176.78 263.516 177.405 266.008 177.405 269.256ZM173.149 269.256C173.149 268.285 173.102 267.408 173.009 266.624C172.916 265.821 172.766 265.131 172.561 264.552C172.356 263.973 172.076 263.525 171.721 263.208C171.366 262.891 170.928 262.732 170.405 262.732C169.882 262.732 169.444 262.891 169.089 263.208C168.753 263.525 168.473 263.973 168.249 264.552C168.044 265.131 167.894 265.821 167.801 266.624C167.708 267.408 167.661 268.285 167.661 269.256C167.661 270.227 167.708 271.113 167.801 271.916C167.894 272.719 168.044 273.409 168.249 273.988C168.473 274.567 168.753 275.015 169.089 275.332C169.444 275.649 169.882 275.808 170.405 275.808C170.928 275.808 171.366 275.649 171.721 275.332C172.076 275.015 172.356 274.567 172.561 273.988C172.766 273.409 172.916 272.719 173.009 271.916C173.102 271.113 173.149 270.227 173.149 269.256ZM180.327 263.628C180.869 263.404 181.429 263.152 182.007 262.872C182.605 262.573 183.183 262.256 183.743 261.92C184.303 261.565 184.835 261.201 185.339 260.828C185.862 260.436 186.329 260.025 186.739 259.596H189.651V279H185.479V265.028C184.919 265.401 184.294 265.747 183.603 266.064C182.913 266.363 182.241 266.624 181.587 266.848L180.327 263.628ZM209.233 269.256C209.233 272.523 208.608 275.033 207.357 276.788C206.125 278.524 204.417 279.392 202.233 279.392C200.049 279.392 198.332 278.524 197.081 276.788C195.849 275.033 195.233 272.523 195.233 269.256C195.233 267.632 195.392 266.195 195.709 264.944C196.045 263.693 196.521 262.639 197.137 261.78C197.753 260.921 198.491 260.268 199.349 259.82C200.208 259.372 201.169 259.148 202.233 259.148C204.417 259.148 206.125 260.025 207.357 261.78C208.608 263.516 209.233 266.008 209.233 269.256ZM204.977 269.256C204.977 268.285 204.931 267.408 204.837 266.624C204.744 265.821 204.595 265.131 204.389 264.552C204.184 263.973 203.904 263.525 203.549 263.208C203.195 262.891 202.756 262.732 202.233 262.732C201.711 262.732 201.272 262.891 200.917 263.208C200.581 263.525 200.301 263.973 200.077 264.552C199.872 265.131 199.723 265.821 199.629 266.624C199.536 267.408 199.489 268.285 199.489 269.256C199.489 270.227 199.536 271.113 199.629 271.916C199.723 272.719 199.872 273.409 200.077 273.988C200.301 274.567 200.581 275.015 200.917 275.332C201.272 275.649 201.711 275.808 202.233 275.808C202.756 275.808 203.195 275.649 203.549 275.332C203.904 275.015 204.184 274.567 204.389 273.988C204.595 273.409 204.744 272.719 204.837 271.916C204.931 271.113 204.977 270.227 204.977 269.256Z" fill="#9A9CA5"/>
<path d="M46.24 341V321.596H59.232V325.264H50.608V329.324H58.28V332.992H50.608V341H46.24ZM61.0647 333.748C61.0647 332.441 61.2607 331.303 61.6527 330.332C62.0634 329.343 62.5954 328.521 63.2487 327.868C63.902 327.215 64.6487 326.72 65.4887 326.384C66.3474 326.048 67.2247 325.88 68.1207 325.88C70.2114 325.88 71.8634 326.524 73.0767 327.812C74.29 329.081 74.8967 330.957 74.8967 333.44C74.8967 333.683 74.8874 333.953 74.8687 334.252C74.85 334.532 74.8314 334.784 74.8127 335.008H65.3487C65.442 335.867 65.8434 336.548 66.5527 337.052C67.262 337.556 68.214 337.808 69.4087 337.808C70.174 337.808 70.9207 337.743 71.6487 337.612C72.3954 337.463 73.002 337.285 73.4687 337.08L74.0287 340.468C73.8047 340.58 73.506 340.692 73.1327 340.804C72.7594 340.916 72.3394 341.009 71.8727 341.084C71.4247 341.177 70.9394 341.252 70.4167 341.308C69.894 341.364 69.3714 341.392 68.8487 341.392C67.5234 341.392 66.366 341.196 65.3767 340.804C64.406 340.412 63.594 339.88 62.9407 339.208C62.306 338.517 61.83 337.705 61.5127 336.772C61.214 335.839 61.0647 334.831 61.0647 333.748ZM70.8647 332.152C70.846 331.797 70.7807 331.452 70.6687 331.116C70.5754 330.78 70.4167 330.481 70.1927 330.22C69.9874 329.959 69.7167 329.744 69.3807 329.576C69.0634 329.408 68.662 329.324 68.1767 329.324C67.71 329.324 67.3087 329.408 66.9727 329.576C66.6367 329.725 66.3567 329.931 66.1327 330.192C65.9087 330.453 65.7314 330.761 65.6007 331.116C65.4887 331.452 65.4047 331.797 65.3487 332.152H70.8647ZM87.5523 333.524C87.5523 330.836 86.5629 329.492 84.5843 329.492C84.1549 329.492 83.7256 329.548 83.2963 329.66C82.8856 329.772 82.5496 329.912 82.2883 330.08V337.668C82.4936 337.705 82.7549 337.743 83.0723 337.78C83.3896 337.799 83.7349 337.808 84.1083 337.808C85.2469 337.808 86.1056 337.416 86.6843 336.632C87.2629 335.848 87.5523 334.812 87.5523 333.524ZM91.8083 333.636C91.8083 334.812 91.6309 335.876 91.2763 336.828C90.9403 337.78 90.4456 338.592 89.7923 339.264C89.1389 339.936 88.3363 340.459 87.3843 340.832C86.4323 341.187 85.3496 341.364 84.1363 341.364C83.6323 341.364 83.1003 341.336 82.5403 341.28C81.9989 341.243 81.4576 341.187 80.9163 341.112C80.3936 341.037 79.8896 340.953 79.4043 340.86C78.9189 340.748 78.4896 340.636 78.1163 340.524V319.944L82.2883 319.272V326.608C82.7549 326.403 83.2403 326.244 83.7443 326.132C84.2483 326.02 84.7896 325.964 85.3683 325.964C86.4136 325.964 87.3376 326.151 88.1403 326.524C88.9429 326.879 89.6149 327.392 90.1562 328.064C90.6976 328.736 91.1083 329.548 91.3883 330.5C91.6683 331.433 91.8083 332.479 91.8083 333.636ZM103.891 329.968C103.517 329.875 103.079 329.781 102.575 329.688C102.071 329.576 101.529 329.52 100.951 329.52C100.689 329.52 100.372 329.548 99.9987 329.604C99.644 329.641 99.3734 329.688 99.1867 329.744V341H95.0147V327.056C95.7614 326.795 96.6387 326.552 97.6467 326.328C98.6734 326.085 99.812 325.964 101.063 325.964C101.287 325.964 101.557 325.983 101.875 326.02C102.192 326.039 102.509 326.076 102.827 326.132C103.144 326.169 103.461 326.225 103.779 326.3C104.096 326.356 104.367 326.431 104.591 326.524L103.891 329.968ZM119.399 340.496C118.69 340.701 117.775 340.888 116.655 341.056C115.535 341.243 114.359 341.336 113.127 341.336C111.877 341.336 110.831 341.168 109.991 340.832C109.17 340.496 108.517 340.029 108.031 339.432C107.546 338.816 107.201 338.088 106.995 337.248C106.79 336.408 106.687 335.484 106.687 334.476V326.272H110.859V333.972C110.859 335.316 111.037 336.287 111.391 336.884C111.746 337.481 112.409 337.78 113.379 337.78C113.678 337.78 113.995 337.771 114.331 337.752C114.667 337.715 114.966 337.677 115.227 337.64V326.272H119.399V340.496ZM128.943 338.088C129.354 338.088 129.746 338.079 130.119 338.06C130.493 338.041 130.791 338.013 131.015 337.976V334.812C130.847 334.775 130.595 334.737 130.259 334.7C129.923 334.663 129.615 334.644 129.335 334.644C128.943 334.644 128.57 334.672 128.215 334.728C127.879 334.765 127.581 334.849 127.319 334.98C127.058 335.111 126.853 335.288 126.703 335.512C126.554 335.736 126.479 336.016 126.479 336.352C126.479 337.005 126.694 337.463 127.123 337.724C127.571 337.967 128.178 338.088 128.943 338.088ZM128.607 325.88C129.839 325.88 130.866 326.02 131.687 326.3C132.509 326.58 133.162 326.981 133.647 327.504C134.151 328.027 134.506 328.661 134.711 329.408C134.917 330.155 135.019 330.985 135.019 331.9V340.58C134.422 340.711 133.591 340.86 132.527 341.028C131.463 341.215 130.175 341.308 128.663 341.308C127.711 341.308 126.843 341.224 126.059 341.056C125.294 340.888 124.631 340.617 124.071 340.244C123.511 339.852 123.082 339.348 122.783 338.732C122.485 338.116 122.335 337.36 122.335 336.464C122.335 335.605 122.503 334.877 122.839 334.28C123.194 333.683 123.661 333.207 124.239 332.852C124.818 332.497 125.481 332.245 126.227 332.096C126.974 331.928 127.749 331.844 128.551 331.844C129.093 331.844 129.569 331.872 129.979 331.928C130.409 331.965 130.754 332.021 131.015 332.096V331.704C131.015 330.995 130.801 330.425 130.371 329.996C129.942 329.567 129.195 329.352 128.131 329.352C127.422 329.352 126.722 329.408 126.031 329.52C125.341 329.613 124.743 329.753 124.239 329.94L123.707 326.58C123.95 326.505 124.249 326.431 124.603 326.356C124.977 326.263 125.378 326.188 125.807 326.132C126.237 326.057 126.685 326.001 127.151 325.964C127.637 325.908 128.122 325.88 128.607 325.88ZM147.668 329.968C147.295 329.875 146.856 329.781 146.352 329.688C145.848 329.576 145.307 329.52 144.728 329.52C144.467 329.52 144.149 329.548 143.776 329.604C143.421 329.641 143.151 329.688 142.964 329.744V341H138.792V327.056C139.539 326.795 140.416 326.552 141.424 326.328C142.451 326.085 143.589 325.964 144.84 325.964C145.064 325.964 145.335 325.983 145.652 326.02C145.969 326.039 146.287 326.076 146.604 326.132C146.921 326.169 147.239 326.225 147.556 326.3C147.873 326.356 148.144 326.431 148.368 326.524L147.668 329.968ZM164.556 326.272C163.716 329.109 162.838 331.769 161.924 334.252C161.009 336.735 160.01 339.143 158.928 341.476C158.536 342.316 158.144 343.025 157.752 343.604C157.36 344.201 156.93 344.687 156.464 345.06C155.997 345.452 155.465 345.732 154.868 345.9C154.289 346.087 153.608 346.18 152.824 346.18C152.17 346.18 151.564 346.115 151.004 345.984C150.462 345.872 150.014 345.741 149.66 345.592L150.388 342.26C150.817 342.409 151.2 342.512 151.536 342.568C151.872 342.624 152.226 342.652 152.6 342.652C153.346 342.652 153.916 342.447 154.308 342.036C154.718 341.644 155.064 341.093 155.344 340.384C154.392 338.517 153.44 336.427 152.488 334.112C151.536 331.779 150.64 329.165 149.8 326.272H154.224C154.41 327 154.625 327.793 154.868 328.652C155.129 329.492 155.4 330.351 155.68 331.228C155.96 332.087 156.24 332.927 156.52 333.748C156.818 334.569 157.098 335.316 157.36 335.988C157.602 335.316 157.854 334.569 158.116 333.748C158.377 332.927 158.629 332.087 158.872 331.228C159.133 330.351 159.376 329.492 159.6 328.652C159.842 327.793 160.057 327 160.244 326.272H164.556ZM185.447 326.692C185.447 327.401 185.307 328.083 185.027 328.736C184.747 329.389 184.383 330.024 183.935 330.64C183.487 331.237 182.983 331.816 182.423 332.376C181.863 332.936 181.312 333.468 180.771 333.972C180.491 334.233 180.183 334.532 179.847 334.868C179.529 335.185 179.221 335.512 178.923 335.848C178.624 336.184 178.353 336.501 178.111 336.8C177.887 337.08 177.747 337.313 177.691 337.5H186.035V341H173.099C173.061 340.795 173.043 340.533 173.043 340.216C173.043 339.899 173.043 339.675 173.043 339.544C173.043 338.648 173.183 337.827 173.463 337.08C173.761 336.333 174.144 335.643 174.611 335.008C175.077 334.355 175.6 333.748 176.179 333.188C176.776 332.628 177.364 332.068 177.943 331.508C178.391 331.079 178.811 330.677 179.203 330.304C179.595 329.912 179.94 329.539 180.239 329.184C180.537 328.811 180.771 328.447 180.939 328.092C181.107 327.719 181.191 327.345 181.191 326.972C181.191 326.151 180.957 325.572 180.491 325.236C180.024 324.9 179.445 324.732 178.755 324.732C178.251 324.732 177.775 324.816 177.327 324.984C176.897 325.133 176.496 325.32 176.123 325.544C175.768 325.749 175.46 325.964 175.199 326.188C174.937 326.393 174.741 326.561 174.611 326.692L172.539 323.78C173.36 323.015 174.312 322.389 175.395 321.904C176.496 321.4 177.672 321.148 178.923 321.148C180.061 321.148 181.041 321.279 181.863 321.54C182.684 321.801 183.356 322.175 183.879 322.66C184.42 323.127 184.812 323.705 185.055 324.396C185.316 325.068 185.447 325.833 185.447 326.692ZM202.425 331.256C202.425 334.523 201.799 337.033 200.549 338.788C199.317 340.524 197.609 341.392 195.425 341.392C193.241 341.392 191.523 340.524 190.273 338.788C189.041 337.033 188.425 334.523 188.425 331.256C188.425 329.632 188.583 328.195 188.901 326.944C189.237 325.693 189.713 324.639 190.329 323.78C190.945 322.921 191.682 322.268 192.541 321.82C193.399 321.372 194.361 321.148 195.425 321.148C197.609 321.148 199.317 322.025 200.549 323.78C201.799 325.516 202.425 328.008 202.425 331.256ZM198.169 331.256C198.169 330.285 198.122 329.408 198.029 328.624C197.935 327.821 197.786 327.131 197.581 326.552C197.375 325.973 197.095 325.525 196.741 325.208C196.386 324.891 195.947 324.732 195.425 324.732C194.902 324.732 194.463 324.891 194.109 325.208C193.773 325.525 193.493 325.973 193.269 326.552C193.063 327.131 192.914 327.821 192.821 328.624C192.727 329.408 192.681 330.285 192.681 331.256C192.681 332.227 192.727 333.113 192.821 333.916C192.914 334.719 193.063 335.409 193.269 335.988C193.493 336.567 193.773 337.015 194.109 337.332C194.463 337.649 194.902 337.808 195.425 337.808C195.947 337.808 196.386 337.649 196.741 337.332C197.095 337.015 197.375 336.567 197.581 335.988C197.786 335.409 197.935 334.719 198.029 333.916C198.122 333.113 198.169 332.227 198.169 331.256ZM218.339 331.256C218.339 334.523 217.713 337.033 216.463 338.788C215.231 340.524 213.523 341.392 211.339 341.392C209.155 341.392 207.437 340.524 206.187 338.788C204.955 337.033 204.339 334.523 204.339 331.256C204.339 329.632 204.497 328.195 204.815 326.944C205.151 325.693 205.627 324.639 206.243 323.78C206.859 322.921 207.596 322.268 208.455 321.82C209.313 321.372 210.275 321.148 211.339 321.148C213.523 321.148 215.231 322.025 216.463 323.78C217.713 325.516 218.339 328.008 218.339 331.256ZM214.083 331.256C214.083 330.285 214.036 329.408 213.943 328.624C213.849 327.821 213.7 327.131 213.495 326.552C213.289 325.973 213.009 325.525 212.655 325.208C212.3 324.891 211.861 324.732 211.339 324.732C210.816 324.732 210.377 324.891 210.023 325.208C209.687 325.525 209.407 325.973 209.183 326.552C208.977 327.131 208.828 327.821 208.735 328.624C208.641 329.408 208.595 330.285 208.595 331.256C208.595 332.227 208.641 333.113 208.735 333.916C208.828 334.719 208.977 335.409 209.183 335.988C209.407 336.567 209.687 337.015 210.023 337.332C210.377 337.649 210.816 337.808 211.339 337.808C211.861 337.808 212.3 337.649 212.655 337.332C213.009 337.015 213.289 336.567 213.495 335.988C213.7 335.409 213.849 334.719 213.943 333.916C214.036 333.113 214.083 332.227 214.083 331.256ZM223.277 341C223.389 339.637 223.622 338.219 223.977 336.744C224.331 335.269 224.761 333.823 225.265 332.404C225.787 330.985 226.366 329.651 227.001 328.4C227.635 327.131 228.279 326.039 228.933 325.124H220.505V321.568H234.085V324.592C233.487 325.245 232.825 326.151 232.097 327.308C231.387 328.465 230.706 329.781 230.053 331.256C229.418 332.712 228.858 334.28 228.373 335.96C227.906 337.64 227.617 339.32 227.505 341H223.277Z" fill="#9A9CA5"/>
<path d="M51.392 383.596C51.728 384.212 52.1107 384.977 52.54 385.892C52.988 386.788 53.4453 387.768 53.912 388.832C54.3973 389.877 54.8733 390.951 55.34 392.052C55.8067 393.153 56.2453 394.189 56.656 395.16C57.0667 394.189 57.5053 393.153 57.972 392.052C58.4387 390.951 58.9053 389.877 59.372 388.832C59.8573 387.768 60.3147 386.788 60.744 385.892C61.192 384.977 61.584 384.212 61.92 383.596H65.896C66.0827 384.884 66.2507 386.331 66.4 387.936C66.568 389.523 66.708 391.184 66.82 392.92C66.9507 394.637 67.0627 396.364 67.156 398.1C67.268 399.836 67.3613 401.469 67.436 403H63.18C63.124 401.115 63.0493 399.061 62.956 396.84C62.8627 394.619 62.7227 392.379 62.536 390.12C62.2 390.904 61.8267 391.772 61.416 392.724C61.0053 393.676 60.5947 394.628 60.184 395.58C59.792 396.532 59.4093 397.447 59.036 398.324C58.6627 399.183 58.3453 399.92 58.084 400.536H55.032C54.7707 399.92 54.4533 399.183 54.08 398.324C53.7067 397.447 53.3147 396.532 52.904 395.58C52.512 394.628 52.1107 393.676 51.7 392.724C51.2893 391.772 50.916 390.904 50.58 390.12C50.3933 392.379 50.2533 394.619 50.16 396.84C50.0667 399.061 49.992 401.115 49.936 403H45.68C45.7547 401.469 45.8387 399.836 45.932 398.1C46.044 396.364 46.156 394.637 46.268 392.92C46.3987 391.184 46.5387 389.523 46.688 387.936C46.856 386.331 47.0333 384.884 47.22 383.596H51.392ZM76.7169 400.088C77.1276 400.088 77.5196 400.079 77.8929 400.06C78.2662 400.041 78.5649 400.013 78.7889 399.976V396.812C78.6209 396.775 78.3689 396.737 78.0329 396.7C77.6969 396.663 77.3889 396.644 77.1089 396.644C76.7169 396.644 76.3436 396.672 75.9889 396.728C75.6529 396.765 75.3542 396.849 75.0929 396.98C74.8316 397.111 74.6262 397.288 74.4769 397.512C74.3276 397.736 74.2529 398.016 74.2529 398.352C74.2529 399.005 74.4676 399.463 74.8969 399.724C75.3449 399.967 75.9516 400.088 76.7169 400.088ZM76.3809 387.88C77.6129 387.88 78.6396 388.02 79.4609 388.3C80.2822 388.58 80.9356 388.981 81.4209 389.504C81.9249 390.027 82.2796 390.661 82.4849 391.408C82.6902 392.155 82.7929 392.985 82.7929 393.9V402.58C82.1956 402.711 81.3649 402.86 80.3009 403.028C79.2369 403.215 77.9489 403.308 76.4369 403.308C75.4849 403.308 74.6169 403.224 73.8329 403.056C73.0676 402.888 72.4049 402.617 71.8449 402.244C71.2849 401.852 70.8556 401.348 70.5569 400.732C70.2582 400.116 70.1089 399.36 70.1089 398.464C70.1089 397.605 70.2769 396.877 70.6129 396.28C70.9676 395.683 71.4342 395.207 72.0129 394.852C72.5916 394.497 73.2542 394.245 74.0009 394.096C74.7476 393.928 75.5222 393.844 76.3249 393.844C76.8662 393.844 77.3422 393.872 77.7529 393.928C78.1822 393.965 78.5276 394.021 78.7889 394.096V393.704C78.7889 392.995 78.5742 392.425 78.1449 391.996C77.7156 391.567 76.9689 391.352 75.9049 391.352C75.1956 391.352 74.4956 391.408 73.8049 391.52C73.1142 391.613 72.5169 391.753 72.0129 391.94L71.4809 388.58C71.7236 388.505 72.0222 388.431 72.3769 388.356C72.7502 388.263 73.1516 388.188 73.5809 388.132C74.0102 388.057 74.4582 388.001 74.9249 387.964C75.4102 387.908 75.8956 387.88 76.3809 387.88ZM99.286 388.272C98.446 391.109 97.5687 393.769 96.654 396.252C95.7393 398.735 94.7407 401.143 93.658 403.476C93.266 404.316 92.874 405.025 92.482 405.604C92.09 406.201 91.6607 406.687 91.194 407.06C90.7273 407.452 90.1953 407.732 89.598 407.9C89.0193 408.087 88.338 408.18 87.554 408.18C86.9007 408.18 86.294 408.115 85.734 407.984C85.1927 407.872 84.7447 407.741 84.39 407.592L85.118 404.26C85.5473 404.409 85.93 404.512 86.266 404.568C86.602 404.624 86.9567 404.652 87.33 404.652C88.0767 404.652 88.646 404.447 89.038 404.036C89.4487 403.644 89.794 403.093 90.074 402.384C89.122 400.517 88.17 398.427 87.218 396.112C86.266 393.779 85.37 391.165 84.53 388.272H88.954C89.1407 389 89.3553 389.793 89.598 390.652C89.8593 391.492 90.13 392.351 90.41 393.228C90.69 394.087 90.97 394.927 91.25 395.748C91.5487 396.569 91.8287 397.316 92.09 397.988C92.3327 397.316 92.5847 396.569 92.846 395.748C93.1073 394.927 93.3593 394.087 93.602 393.228C93.8633 392.351 94.106 391.492 94.33 390.652C94.5727 389.793 94.7873 389 94.974 388.272H99.286ZM120.177 388.692C120.177 389.401 120.037 390.083 119.757 390.736C119.477 391.389 119.113 392.024 118.665 392.64C118.217 393.237 117.713 393.816 117.153 394.376C116.593 394.936 116.042 395.468 115.501 395.972C115.221 396.233 114.913 396.532 114.577 396.868C114.26 397.185 113.952 397.512 113.653 397.848C113.354 398.184 113.084 398.501 112.841 398.8C112.617 399.08 112.477 399.313 112.421 399.5H120.765V403H107.829C107.792 402.795 107.773 402.533 107.773 402.216C107.773 401.899 107.773 401.675 107.773 401.544C107.773 400.648 107.913 399.827 108.193 399.08C108.492 398.333 108.874 397.643 109.341 397.008C109.808 396.355 110.33 395.748 110.909 395.188C111.506 394.628 112.094 394.068 112.673 393.508C113.121 393.079 113.541 392.677 113.933 392.304C114.325 391.912 114.67 391.539 114.969 391.184C115.268 390.811 115.501 390.447 115.669 390.092C115.837 389.719 115.921 389.345 115.921 388.972C115.921 388.151 115.688 387.572 115.221 387.236C114.754 386.9 114.176 386.732 113.485 386.732C112.981 386.732 112.505 386.816 112.057 386.984C111.628 387.133 111.226 387.32 110.853 387.544C110.498 387.749 110.19 387.964 109.929 388.188C109.668 388.393 109.472 388.561 109.341 388.692L107.269 385.78C108.09 385.015 109.042 384.389 110.125 383.904C111.226 383.4 112.402 383.148 113.653 383.148C114.792 383.148 115.772 383.279 116.593 383.54C117.414 383.801 118.086 384.175 118.609 384.66C119.15 385.127 119.542 385.705 119.785 386.396C120.046 387.068 120.177 387.833 120.177 388.692ZM137.155 393.256C137.155 396.523 136.53 399.033 135.279 400.788C134.047 402.524 132.339 403.392 130.155 403.392C127.971 403.392 126.254 402.524 125.003 400.788C123.771 399.033 123.155 396.523 123.155 393.256C123.155 391.632 123.314 390.195 123.631 388.944C123.967 387.693 124.443 386.639 125.059 385.78C125.675 384.921 126.412 384.268 127.271 383.82C128.13 383.372 129.091 383.148 130.155 383.148C132.339 383.148 134.047 384.025 135.279 385.78C136.53 387.516 137.155 390.008 137.155 393.256ZM132.899 393.256C132.899 392.285 132.852 391.408 132.759 390.624C132.666 389.821 132.516 389.131 132.311 388.552C132.106 387.973 131.826 387.525 131.471 387.208C131.116 386.891 130.678 386.732 130.155 386.732C129.632 386.732 129.194 386.891 128.839 387.208C128.503 387.525 128.223 387.973 127.999 388.552C127.794 389.131 127.644 389.821 127.551 390.624C127.458 391.408 127.411 392.285 127.411 393.256C127.411 394.227 127.458 395.113 127.551 395.916C127.644 396.719 127.794 397.409 127.999 397.988C128.223 398.567 128.503 399.015 128.839 399.332C129.194 399.649 129.632 399.808 130.155 399.808C130.678 399.808 131.116 399.649 131.471 399.332C131.826 399.015 132.106 398.567 132.311 397.988C132.516 397.409 132.666 396.719 132.759 395.916C132.852 395.113 132.899 394.227 132.899 393.256ZM153.069 393.256C153.069 396.523 152.444 399.033 151.193 400.788C149.961 402.524 148.253 403.392 146.069 403.392C143.885 403.392 142.168 402.524 140.917 400.788C139.685 399.033 139.069 396.523 139.069 393.256C139.069 391.632 139.228 390.195 139.545 388.944C139.881 387.693 140.357 386.639 140.973 385.78C141.589 384.921 142.327 384.268 143.185 383.82C144.044 383.372 145.005 383.148 146.069 383.148C148.253 383.148 149.961 384.025 151.193 385.78C152.444 387.516 153.069 390.008 153.069 393.256ZM148.813 393.256C148.813 392.285 148.767 391.408 148.673 390.624C148.58 389.821 148.431 389.131 148.225 388.552C148.02 387.973 147.74 387.525 147.385 387.208C147.031 386.891 146.592 386.732 146.069 386.732C145.547 386.732 145.108 386.891 144.753 387.208C144.417 387.525 144.137 387.973 143.913 388.552C143.708 389.131 143.559 389.821 143.465 390.624C143.372 391.408 143.325 392.285 143.325 393.256C143.325 394.227 143.372 395.113 143.465 395.916C143.559 396.719 143.708 397.409 143.913 397.988C144.137 398.567 144.417 399.015 144.753 399.332C145.108 399.649 145.547 399.808 146.069 399.808C146.592 399.808 147.031 399.649 147.385 399.332C147.74 399.015 148.02 398.567 148.225 397.988C148.431 397.409 148.58 396.719 148.673 395.916C148.767 395.113 148.813 394.227 148.813 393.256ZM162.963 388.692C162.235 389.644 161.461 390.68 160.639 391.8C159.818 392.92 159.127 394.068 158.567 395.244H162.963V388.692ZM167.051 383.596V395.244H169.123V398.66H167.051V403H162.963V398.66H154.591V395.608C155.002 394.787 155.515 393.863 156.131 392.836C156.747 391.791 157.429 390.727 158.175 389.644C158.941 388.543 159.743 387.469 160.583 386.424C161.423 385.379 162.263 384.436 163.103 383.596H167.051Z" fill="#9A9CA5"/>
<path d="M49.908 455.284C49.908 456.236 50.02 457.095 50.244 457.86C50.4867 458.625 50.8227 459.288 51.252 459.848C51.7 460.389 52.2413 460.809 52.876 461.108C53.5107 461.407 54.2387 461.556 55.06 461.556C55.8627 461.556 56.5813 461.407 57.216 461.108C57.8693 460.809 58.4107 460.389 58.84 459.848C59.288 459.288 59.624 458.625 59.848 457.86C60.0907 457.095 60.212 456.236 60.212 455.284C60.212 454.332 60.0907 453.473 59.848 452.708C59.624 451.924 59.288 451.261 58.84 450.72C58.4107 450.16 57.8693 449.731 57.216 449.432C56.5813 449.133 55.8627 448.984 55.06 448.984C54.2387 448.984 53.5107 449.143 52.876 449.46C52.2413 449.759 51.7 450.188 51.252 450.748C50.8227 451.289 50.4867 451.952 50.244 452.736C50.02 453.501 49.908 454.351 49.908 455.284ZM64.72 455.284C64.72 456.945 64.468 458.411 63.964 459.68C63.4787 460.931 62.8067 461.985 61.948 462.844C61.0893 463.684 60.0627 464.319 58.868 464.748C57.692 465.177 56.4227 465.392 55.06 465.392C53.7347 465.392 52.484 465.177 51.308 464.748C50.132 464.319 49.1053 463.684 48.228 462.844C47.3507 461.985 46.66 460.931 46.156 459.68C45.652 458.411 45.4 456.945 45.4 455.284C45.4 453.623 45.6613 452.167 46.184 450.916C46.7067 449.647 47.4067 448.583 48.284 447.724C49.18 446.865 50.2067 446.221 51.364 445.792C52.54 445.363 53.772 445.148 55.06 445.148C56.3853 445.148 57.636 445.363 58.812 445.792C59.988 446.221 61.0147 446.865 61.892 447.724C62.7693 448.583 63.46 449.647 63.964 450.916C64.468 452.167 64.72 453.623 64.72 455.284ZM67.3811 457.636C67.3811 456.572 67.5491 455.573 67.8851 454.64C68.2398 453.688 68.7438 452.867 69.3971 452.176C70.0504 451.467 70.8438 450.907 71.7771 450.496C72.7104 450.085 73.7744 449.88 74.9691 449.88C75.7531 449.88 76.4718 449.955 77.1251 450.104C77.7784 450.235 78.4131 450.431 79.0291 450.692L78.1611 454.024C77.7691 453.875 77.3398 453.744 76.8731 453.632C76.4064 453.52 75.8838 453.464 75.3051 453.464C74.0731 453.464 73.1491 453.847 72.5331 454.612C71.9358 455.377 71.6371 456.385 71.6371 457.636C71.6371 458.961 71.9171 459.988 72.4771 460.716C73.0558 461.444 74.0544 461.808 75.4731 461.808C75.9771 461.808 76.5184 461.761 77.0971 461.668C77.6758 461.575 78.2078 461.425 78.6931 461.22L79.2811 464.636C78.7958 464.841 78.1891 465.019 77.4611 465.168C76.7331 465.317 75.9304 465.392 75.0531 465.392C73.7091 465.392 72.5518 465.196 71.5811 464.804C70.6104 464.393 69.8078 463.843 69.1731 463.152C68.5571 462.461 68.0998 461.649 67.8011 460.716C67.5211 459.764 67.3811 458.737 67.3811 457.636ZM81.9411 446.604L86.1131 445.932V450.272H91.1251V453.744H86.1131V458.924C86.1131 459.801 86.2624 460.501 86.5611 461.024C86.8784 461.547 87.5038 461.808 88.4371 461.808C88.8851 461.808 89.3424 461.771 89.8091 461.696C90.2944 461.603 90.7331 461.481 91.1251 461.332L91.7131 464.58C91.2091 464.785 90.6491 464.963 90.0331 465.112C89.4171 465.261 88.6611 465.336 87.7651 465.336C86.6264 465.336 85.6838 465.187 84.9371 464.888C84.1904 464.571 83.5931 464.141 83.1451 463.6C82.6971 463.04 82.3798 462.368 82.1931 461.584C82.0251 460.8 81.9411 459.932 81.9411 458.98V446.604ZM107.752 457.608C107.752 458.765 107.584 459.829 107.248 460.8C106.912 461.752 106.426 462.573 105.792 463.264C105.157 463.936 104.392 464.459 103.496 464.832C102.618 465.205 101.629 465.392 100.528 465.392C99.445 465.392 98.4556 465.205 97.5596 464.832C96.6823 464.459 95.9263 463.936 95.2916 463.264C94.657 462.573 94.1623 461.752 93.8076 460.8C93.453 459.829 93.2756 458.765 93.2756 457.608C93.2756 456.451 93.453 455.396 93.8076 454.444C94.181 453.492 94.685 452.68 95.3196 452.008C95.973 451.336 96.7383 450.813 97.6156 450.44C98.5116 450.067 99.4823 449.88 100.528 449.88C101.592 449.88 102.562 450.067 103.44 450.44C104.336 450.813 105.101 451.336 105.736 452.008C106.37 452.68 106.865 453.492 107.22 454.444C107.574 455.396 107.752 456.451 107.752 457.608ZM103.496 457.608C103.496 456.32 103.234 455.312 102.712 454.584C102.208 453.837 101.48 453.464 100.528 453.464C99.5756 453.464 98.8383 453.837 98.3156 454.584C97.793 455.312 97.5316 456.32 97.5316 457.608C97.5316 458.896 97.793 459.923 98.3156 460.688C98.8383 461.435 99.5756 461.808 100.528 461.808C101.48 461.808 102.208 461.435 102.712 460.688C103.234 459.923 103.496 458.896 103.496 457.608ZM120.419 457.524C120.419 454.836 119.43 453.492 117.451 453.492C117.022 453.492 116.593 453.548 116.163 453.66C115.753 453.772 115.417 453.912 115.155 454.08V461.668C115.361 461.705 115.622 461.743 115.939 461.78C116.257 461.799 116.602 461.808 116.975 461.808C118.114 461.808 118.973 461.416 119.551 460.632C120.13 459.848 120.419 458.812 120.419 457.524ZM124.675 457.636C124.675 458.812 124.498 459.876 124.143 460.828C123.807 461.78 123.313 462.592 122.659 463.264C122.006 463.936 121.203 464.459 120.251 464.832C119.299 465.187 118.217 465.364 117.003 465.364C116.499 465.364 115.967 465.336 115.407 465.28C114.866 465.243 114.325 465.187 113.783 465.112C113.261 465.037 112.757 464.953 112.271 464.86C111.786 464.748 111.357 464.636 110.983 464.524V443.944L115.155 443.272V450.608C115.622 450.403 116.107 450.244 116.611 450.132C117.115 450.02 117.657 449.964 118.235 449.964C119.281 449.964 120.205 450.151 121.007 450.524C121.81 450.879 122.482 451.392 123.023 452.064C123.565 452.736 123.975 453.548 124.255 454.5C124.535 455.433 124.675 456.479 124.675 457.636ZM127.182 457.748C127.182 456.441 127.378 455.303 127.77 454.332C128.181 453.343 128.713 452.521 129.366 451.868C130.019 451.215 130.766 450.72 131.606 450.384C132.465 450.048 133.342 449.88 134.238 449.88C136.329 449.88 137.981 450.524 139.194 451.812C140.407 453.081 141.014 454.957 141.014 457.44C141.014 457.683 141.005 457.953 140.986 458.252C140.967 458.532 140.949 458.784 140.93 459.008H131.466C131.559 459.867 131.961 460.548 132.67 461.052C133.379 461.556 134.331 461.808 135.526 461.808C136.291 461.808 137.038 461.743 137.766 461.612C138.513 461.463 139.119 461.285 139.586 461.08L140.146 464.468C139.922 464.58 139.623 464.692 139.25 464.804C138.877 464.916 138.457 465.009 137.99 465.084C137.542 465.177 137.057 465.252 136.534 465.308C136.011 465.364 135.489 465.392 134.966 465.392C133.641 465.392 132.483 465.196 131.494 464.804C130.523 464.412 129.711 463.88 129.058 463.208C128.423 462.517 127.947 461.705 127.63 460.772C127.331 459.839 127.182 458.831 127.182 457.748ZM136.982 456.152C136.963 455.797 136.898 455.452 136.786 455.116C136.693 454.78 136.534 454.481 136.31 454.22C136.105 453.959 135.834 453.744 135.498 453.576C135.181 453.408 134.779 453.324 134.294 453.324C133.827 453.324 133.426 453.408 133.09 453.576C132.754 453.725 132.474 453.931 132.25 454.192C132.026 454.453 131.849 454.761 131.718 455.116C131.606 455.452 131.522 455.797 131.466 456.152H136.982ZM153.109 453.968C152.736 453.875 152.297 453.781 151.793 453.688C151.289 453.576 150.748 453.52 150.169 453.52C149.908 453.52 149.591 453.548 149.217 453.604C148.863 453.641 148.592 453.688 148.405 453.744V465H144.233V451.056C144.98 450.795 145.857 450.552 146.865 450.328C147.892 450.085 149.031 449.964 150.281 449.964C150.505 449.964 150.776 449.983 151.093 450.02C151.411 450.039 151.728 450.076 152.045 450.132C152.363 450.169 152.68 450.225 152.997 450.3C153.315 450.356 153.585 450.431 153.809 450.524L153.109 453.968ZM174.701 450.692C174.701 451.401 174.561 452.083 174.281 452.736C174.001 453.389 173.637 454.024 173.189 454.64C172.741 455.237 172.237 455.816 171.677 456.376C171.117 456.936 170.566 457.468 170.025 457.972C169.745 458.233 169.437 458.532 169.101 458.868C168.783 459.185 168.475 459.512 168.177 459.848C167.878 460.184 167.607 460.501 167.365 460.8C167.141 461.08 167.001 461.313 166.945 461.5H175.289V465H162.353C162.315 464.795 162.297 464.533 162.297 464.216C162.297 463.899 162.297 463.675 162.297 463.544C162.297 462.648 162.437 461.827 162.717 461.08C163.015 460.333 163.398 459.643 163.865 459.008C164.331 458.355 164.854 457.748 165.433 457.188C166.03 456.628 166.618 456.068 167.197 455.508C167.645 455.079 168.065 454.677 168.457 454.304C168.849 453.912 169.194 453.539 169.493 453.184C169.791 452.811 170.025 452.447 170.193 452.092C170.361 451.719 170.445 451.345 170.445 450.972C170.445 450.151 170.211 449.572 169.745 449.236C169.278 448.9 168.699 448.732 168.008 448.732C167.505 448.732 167.029 448.816 166.581 448.984C166.151 449.133 165.75 449.32 165.377 449.544C165.022 449.749 164.714 449.964 164.453 450.188C164.191 450.393 163.995 450.561 163.865 450.692L161.793 447.78C162.614 447.015 163.566 446.389 164.649 445.904C165.75 445.4 166.926 445.148 168.177 445.148C169.315 445.148 170.295 445.279 171.117 445.54C171.938 445.801 172.61 446.175 173.133 446.66C173.674 447.127 174.066 447.705 174.309 448.396C174.57 449.068 174.701 449.833 174.701 450.692ZM191.679 455.256C191.679 458.523 191.053 461.033 189.803 462.788C188.571 464.524 186.863 465.392 184.679 465.392C182.495 465.392 180.777 464.524 179.527 462.788C178.295 461.033 177.679 458.523 177.679 455.256C177.679 453.632 177.837 452.195 178.155 450.944C178.491 449.693 178.967 448.639 179.583 447.78C180.199 446.921 180.936 446.268 181.795 445.82C182.653 445.372 183.615 445.148 184.679 445.148C186.863 445.148 188.571 446.025 189.803 447.78C191.053 449.516 191.679 452.008 191.679 455.256ZM187.423 455.256C187.423 454.285 187.376 453.408 187.283 452.624C187.189 451.821 187.04 451.131 186.835 450.552C186.629 449.973 186.349 449.525 185.995 449.208C185.64 448.891 185.201 448.732 184.679 448.732C184.156 448.732 183.717 448.891 183.363 449.208C183.027 449.525 182.747 449.973 182.523 450.552C182.317 451.131 182.168 451.821 182.075 452.624C181.981 453.408 181.935 454.285 181.935 455.256C181.935 456.227 181.981 457.113 182.075 457.916C182.168 458.719 182.317 459.409 182.523 459.988C182.747 460.567 183.027 461.015 183.363 461.332C183.717 461.649 184.156 461.808 184.679 461.808C185.201 461.808 185.64 461.649 185.995 461.332C186.349 461.015 186.629 460.567 186.835 459.988C187.04 459.409 187.189 458.719 187.283 457.916C187.376 457.113 187.423 456.227 187.423 455.256ZM207.593 455.256C207.593 458.523 206.967 461.033 205.717 462.788C204.485 464.524 202.777 465.392 200.593 465.392C198.409 465.392 196.691 464.524 195.441 462.788C194.209 461.033 193.593 458.523 193.593 455.256C193.593 453.632 193.751 452.195 194.069 450.944C194.405 449.693 194.881 448.639 195.497 447.78C196.113 446.921 196.85 446.268 197.709 445.82C198.567 445.372 199.529 445.148 200.593 445.148C202.777 445.148 204.485 446.025 205.717 447.78C206.967 449.516 207.593 452.008 207.593 455.256ZM203.337 455.256C203.337 454.285 203.29 453.408 203.197 452.624C203.103 451.821 202.954 451.131 202.749 450.552C202.543 449.973 202.263 449.525 201.909 449.208C201.554 448.891 201.115 448.732 200.593 448.732C200.07 448.732 199.631 448.891 199.277 449.208C198.941 449.525 198.661 449.973 198.437 450.552C198.231 451.131 198.082 451.821 197.989 452.624C197.895 453.408 197.849 454.285 197.849 455.256C197.849 456.227 197.895 457.113 197.989 457.916C198.082 458.719 198.231 459.409 198.437 459.988C198.661 460.567 198.941 461.015 199.277 461.332C199.631 461.649 200.07 461.808 200.593 461.808C201.115 461.808 201.554 461.649 201.909 461.332C202.263 461.015 202.543 460.567 202.749 459.988C202.954 459.409 203.103 458.719 203.197 457.916C203.29 457.113 203.337 456.227 203.337 455.256ZM210.515 449.628C211.056 449.404 211.616 449.152 212.195 448.872C212.792 448.573 213.371 448.256 213.931 447.92C214.491 447.565 215.023 447.201 215.527 446.828C216.049 446.436 216.516 446.025 216.927 445.596H219.839V465H215.667V451.028C215.107 451.401 214.481 451.747 213.791 452.064C213.1 452.363 212.428 452.624 211.775 452.848L210.515 449.628Z" fill="#9A9CA5"/>
<path d="M56.852 520.476C56.852 521.428 56.74 522.324 56.516 523.164C56.3107 524.004 55.9373 524.741 55.396 525.376C54.8733 525.992 54.1547 526.487 53.24 526.86C52.344 527.215 51.2053 527.392 49.824 527.392C48.5547 527.392 47.4627 527.243 46.548 526.944C45.6333 526.627 44.8773 526.263 44.28 525.852L45.736 522.464C46.2773 522.781 46.856 523.061 47.472 523.304C48.088 523.547 48.76 523.668 49.488 523.668C50.552 523.668 51.3173 523.407 51.784 522.884C52.2507 522.361 52.484 521.484 52.484 520.252V507.596H56.852V520.476ZM73.3523 526.496C72.643 526.701 71.7283 526.888 70.6083 527.056C69.4883 527.243 68.3123 527.336 67.0803 527.336C65.8296 527.336 64.7843 527.168 63.9443 526.832C63.123 526.496 62.4696 526.029 61.9843 525.432C61.499 524.816 61.1536 524.088 60.9483 523.248C60.743 522.408 60.6403 521.484 60.6403 520.476V512.272H64.8123V519.972C64.8123 521.316 64.9896 522.287 65.3443 522.884C65.699 523.481 66.3616 523.78 67.3323 523.78C67.631 523.78 67.9483 523.771 68.2843 523.752C68.6203 523.715 68.919 523.677 69.1803 523.64V512.272H73.3523V526.496ZM77.2686 512.776C77.9779 512.571 78.8926 512.384 80.0126 512.216C81.1326 512.029 82.3086 511.936 83.5406 511.936C84.7913 511.936 85.8273 512.104 86.6486 512.44C87.4886 512.757 88.1513 513.215 88.6366 513.812C89.1219 514.409 89.4673 515.119 89.6726 515.94C89.8779 516.761 89.9806 517.676 89.9806 518.684V527H85.8086V519.188C85.8086 517.844 85.6313 516.892 85.2766 516.332C84.9219 515.772 84.2593 515.492 83.2886 515.492C82.9899 515.492 82.6726 515.511 82.3366 515.548C82.0006 515.567 81.7019 515.595 81.4406 515.632V527H77.2686V512.776ZM93.0569 519.748C93.0569 518.441 93.2529 517.303 93.6449 516.332C94.0555 515.343 94.5875 514.521 95.2409 513.868C95.8942 513.215 96.6409 512.72 97.4809 512.384C98.3395 512.048 99.2169 511.88 100.113 511.88C102.204 511.88 103.856 512.524 105.069 513.812C106.282 515.081 106.889 516.957 106.889 519.44C106.889 519.683 106.88 519.953 106.861 520.252C106.842 520.532 106.824 520.784 106.805 521.008H97.3409C97.4342 521.867 97.8355 522.548 98.5449 523.052C99.2542 523.556 100.206 523.808 101.401 523.808C102.166 523.808 102.913 523.743 103.641 523.612C104.388 523.463 104.994 523.285 105.461 523.08L106.021 526.468C105.797 526.58 105.498 526.692 105.125 526.804C104.752 526.916 104.332 527.009 103.865 527.084C103.417 527.177 102.932 527.252 102.409 527.308C101.886 527.364 101.364 527.392 100.841 527.392C99.5155 527.392 98.3582 527.196 97.3689 526.804C96.3982 526.412 95.5862 525.88 94.9329 525.208C94.2982 524.517 93.8222 523.705 93.5049 522.772C93.2062 521.839 93.0569 520.831 93.0569 519.748ZM102.857 518.152C102.838 517.797 102.773 517.452 102.661 517.116C102.568 516.78 102.409 516.481 102.185 516.22C101.98 515.959 101.709 515.744 101.373 515.576C101.056 515.408 100.654 515.324 100.169 515.324C99.7022 515.324 99.3009 515.408 98.9649 515.576C98.6289 515.725 98.3489 515.931 98.1249 516.192C97.9009 516.453 97.7235 516.761 97.5929 517.116C97.4809 517.452 97.3969 517.797 97.3409 518.152H102.857ZM128.763 512.692C128.763 513.401 128.623 514.083 128.343 514.736C128.063 515.389 127.699 516.024 127.251 516.64C126.803 517.237 126.299 517.816 125.739 518.376C125.179 518.936 124.628 519.468 124.087 519.972C123.807 520.233 123.499 520.532 123.163 520.868C122.846 521.185 122.538 521.512 122.239 521.848C121.94 522.184 121.67 522.501 121.427 522.8C121.203 523.08 121.063 523.313 121.007 523.5H129.351V527H116.415C116.378 526.795 116.359 526.533 116.359 526.216C116.359 525.899 116.359 525.675 116.359 525.544C116.359 524.648 116.499 523.827 116.779 523.08C117.078 522.333 117.46 521.643 117.927 521.008C118.394 520.355 118.916 519.748 119.495 519.188C120.092 518.628 120.68 518.068 121.259 517.508C121.707 517.079 122.127 516.677 122.519 516.304C122.911 515.912 123.256 515.539 123.555 515.184C123.854 514.811 124.087 514.447 124.255 514.092C124.423 513.719 124.507 513.345 124.507 512.972C124.507 512.151 124.274 511.572 123.807 511.236C123.34 510.9 122.762 510.732 122.071 510.732C121.567 510.732 121.091 510.816 120.643 510.984C120.214 511.133 119.812 511.32 119.439 511.544C119.084 511.749 118.776 511.964 118.515 512.188C118.254 512.393 118.058 512.561 117.927 512.692L115.855 509.78C116.676 509.015 117.628 508.389 118.711 507.904C119.812 507.4 120.988 507.148 122.239 507.148C123.378 507.148 124.358 507.279 125.179 507.54C126 507.801 126.672 508.175 127.195 508.66C127.736 509.127 128.128 509.705 128.371 510.396C128.632 511.068 128.763 511.833 128.763 512.692ZM145.741 517.256C145.741 520.523 145.116 523.033 143.865 524.788C142.633 526.524 140.925 527.392 138.741 527.392C136.557 527.392 134.84 526.524 133.589 524.788C132.357 523.033 131.741 520.523 131.741 517.256C131.741 515.632 131.9 514.195 132.217 512.944C132.553 511.693 133.029 510.639 133.645 509.78C134.261 508.921 134.998 508.268 135.857 507.82C136.716 507.372 137.677 507.148 138.741 507.148C140.925 507.148 142.633 508.025 143.865 509.78C145.116 511.516 145.741 514.008 145.741 517.256ZM141.485 517.256C141.485 516.285 141.438 515.408 141.345 514.624C141.252 513.821 141.102 513.131 140.897 512.552C140.692 511.973 140.412 511.525 140.057 511.208C139.702 510.891 139.264 510.732 138.741 510.732C138.218 510.732 137.78 510.891 137.425 511.208C137.089 511.525 136.809 511.973 136.585 512.552C136.38 513.131 136.23 513.821 136.137 514.624C136.044 515.408 135.997 516.285 135.997 517.256C135.997 518.227 136.044 519.113 136.137 519.916C136.23 520.719 136.38 521.409 136.585 521.988C136.809 522.567 137.089 523.015 137.425 523.332C137.78 523.649 138.218 523.808 138.741 523.808C139.264 523.808 139.702 523.649 140.057 523.332C140.412 523.015 140.692 522.567 140.897 521.988C141.102 521.409 141.252 520.719 141.345 519.916C141.438 519.113 141.485 518.227 141.485 517.256ZM161.655 517.256C161.655 520.523 161.03 523.033 159.779 524.788C158.547 526.524 156.839 527.392 154.655 527.392C152.471 527.392 150.754 526.524 149.503 524.788C148.271 523.033 147.655 520.523 147.655 517.256C147.655 515.632 147.814 514.195 148.131 512.944C148.467 511.693 148.943 510.639 149.559 509.78C150.175 508.921 150.912 508.268 151.771 507.82C152.63 507.372 153.591 507.148 154.655 507.148C156.839 507.148 158.547 508.025 159.779 509.78C161.03 511.516 161.655 514.008 161.655 517.256ZM157.399 517.256C157.399 516.285 157.352 515.408 157.259 514.624C157.166 513.821 157.016 513.131 156.811 512.552C156.606 511.973 156.326 511.525 155.971 511.208C155.616 510.891 155.178 510.732 154.655 510.732C154.132 510.732 153.694 510.891 153.339 511.208C153.003 511.525 152.723 511.973 152.499 512.552C152.294 513.131 152.144 513.821 152.051 514.624C151.958 515.408 151.911 516.285 151.911 517.256C151.911 518.227 151.958 519.113 152.051 519.916C152.144 520.719 152.294 521.409 152.499 521.988C152.723 522.567 153.003 523.015 153.339 523.332C153.694 523.649 154.132 523.808 154.655 523.808C155.178 523.808 155.616 523.649 155.971 523.332C156.326 523.015 156.606 522.567 156.811 521.988C157.016 521.409 157.166 520.719 157.259 519.916C157.352 519.113 157.399 518.227 157.399 517.256ZM177.569 517.256C177.569 520.523 176.944 523.033 175.693 524.788C174.461 526.524 172.753 527.392 170.569 527.392C168.385 527.392 166.668 526.524 165.417 524.788C164.185 523.033 163.569 520.523 163.569 517.256C163.569 515.632 163.728 514.195 164.045 512.944C164.381 511.693 164.857 510.639 165.473 509.78C166.089 508.921 166.827 508.268 167.685 507.82C168.544 507.372 169.505 507.148 170.569 507.148C172.753 507.148 174.461 508.025 175.693 509.78C176.944 511.516 177.569 514.008 177.569 517.256ZM173.313 517.256C173.313 516.285 173.267 515.408 173.173 514.624C173.08 513.821 172.931 513.131 172.725 512.552C172.52 511.973 172.24 511.525 171.885 511.208C171.531 510.891 171.092 510.732 170.569 510.732C170.047 510.732 169.608 510.891 169.253 511.208C168.917 511.525 168.637 511.973 168.413 512.552C168.208 513.131 168.059 513.821 167.965 514.624C167.872 515.408 167.825 516.285 167.825 517.256C167.825 518.227 167.872 519.113 167.965 519.916C168.059 520.719 168.208 521.409 168.413 521.988C168.637 522.567 168.917 523.015 169.253 523.332C169.608 523.649 170.047 523.808 170.569 523.808C171.092 523.808 171.531 523.649 171.885 523.332C172.24 523.015 172.52 522.567 172.725 521.988C172.931 521.409 173.08 520.719 173.173 519.916C173.267 519.113 173.313 518.227 173.313 517.256Z" fill="#9A9CA5"/>
<line opacity="0.5" x1="7.5" y1="0.5" x2="7.49998" y2="537.5" stroke="#9A9CA5" stroke-linecap="round"/>
<circle cx="8" cy="21" r="6" fill="#FF5A30" stroke="#F4F5F7" stroke-width="4"/>
<circle cx="8" cy="145" r="6" fill="#9A9CA5" stroke="#F4F5F7" stroke-width="4"/>
<circle cx="8" cy="269" r="6" fill="#9A9CA5" stroke="#F4F5F7" stroke-width="4"/>
<circle cx="8" cy="83" r="6" fill="#9A9CA5" stroke="#F4F5F7" stroke-width="4"/>
<circle cx="8" cy="207" r="6" fill="#9A9CA5" stroke="#F4F5F7" stroke-width="4"/>
<circle cx="8" cy="331" r="6" fill="#9A9CA5" stroke="#F4F5F7" stroke-width="4"/>
<circle cx="8" cy="393" r="6" fill="#9A9CA5" stroke="#F4F5F7" stroke-width="4"/>
<circle cx="8" cy="455" r="6" fill="#9A9CA5" stroke="#F4F5F7" stroke-width="4"/>
<circle cx="8" cy="517" r="6" fill="#9A9CA5" stroke="#F4F5F7" stroke-width="4"/>
</g>
</svg>
